<svg width="62" height="62" viewBox="0 0 62 62" fill="none" xmlns="http://www.w3.org/2000/svg">
<path d="M45.6075 11.9585C45.6075 10.7085 46.6175 9.69849 47.8675 9.69849C49.1175 9.69849 50.1275 10.7085 50.1275 11.9585C50.1275 13.2085 49.1175 14.2185 47.8675 14.2185C46.6175 14.2185 45.6075 13.2085 45.6075 11.9585Z" fill="#E41910"/>
<path d="M1 30.995C1 39.0337 4.16053 46.3324 9.31138 51.7215C9.9915 52.4314 10.7016 53.1113 11.4417 53.7512C12.1219 54.3411 12.842 54.901 13.5721 55.4309C17.5128 58.2405 22.1535 60.1301 27.1944 60.76C28.4446 60.92 29.7148 61 31.005 61C37.6461 61 43.7871 58.8404 48.748 55.191C51.4484 53.2113 53.8088 50.7817 55.7191 48.0222C56.8893 46.3324 57.8895 44.5027 58.6896 42.5831C59.9198 39.6336 60.6999 36.4541 60.93 33.1146C60.98 32.4148 61 31.7149 61 31.015C61 26.0358 59.7898 21.3366 57.6394 17.2073C56.7393 15.4776 55.6791 13.8479 54.4789 12.3381C48.988 5.41926 40.5066 1 31.005 1C14.4322 1 1 14.4278 1 30.995Z" stroke="#8D8E91" stroke-width="0.7" stroke-linecap="round" stroke-linejoin="round"/>
<path d="M22.3535 33.8545C24.8945 33.8545 26.9543 31.7954 26.9543 29.2553C26.9543 26.7152 24.8945 24.6561 22.3535 24.6561C19.8126 24.6561 17.7528 26.7152 17.7528 29.2553C17.7528 31.7954 19.8126 33.8545 22.3535 33.8545Z" stroke="#8D8E91" stroke-width="0.7" stroke-linecap="round" stroke-linejoin="round"/>
<path d="M24.4239 35.1343C24.8639 35.2643 25.2839 35.4343 25.6839 35.6542C27.9539 36.854 29.4939 39.2337 29.4939 41.9832V49.002C29.4939 49.9719 28.7139 50.7517 27.7439 50.7517C26.7739 50.7517 25.9939 49.9719 25.9939 49.002V46.8524" stroke="#8D8E91" stroke-width="0.7" stroke-linecap="round" stroke-linejoin="round"/>
<path d="M19.083 44.9327L21.7635 47.2023C22.5136 47.8422 22.6036 48.962 21.9635 49.7119C21.3334 50.4418 20.2332 50.5418 19.4831 49.9319L16.0325 47.1023C15.5024 46.6724 15.2024 46.0325 15.2024 45.3526V41.9732C15.2024 39.9935 16.0025 38.2038 17.2927 36.914C17.8128 36.4041 18.3929 35.9642 19.043 35.6342C19.4331 35.4243 19.8532 35.2543 20.2932 35.1243" stroke="#8D8E91" stroke-width="0.7" stroke-linecap="round" stroke-linejoin="round"/>
<path d="M24.4232 35.1343L22.3832 38.3743L20.2932 35.1243" stroke="#8D8E91" stroke-width="0.7" stroke-linecap="round" stroke-linejoin="round"/>
<path d="M26.4542 36.1241L22.4236 42.0641L18.2929 36.0941" stroke="#8D8E91" stroke-width="0.7" stroke-linecap="round" stroke-linejoin="round"/>
<path d="M26.9735 40.4934L21.8835 46.8324" stroke="#8D8E91" stroke-width="0.7" stroke-linecap="round" stroke-linejoin="round"/>
<path d="M36.786 33.8945C38.9181 33.8945 40.6466 32.1666 40.6466 30.0351C40.6466 27.9037 38.9181 26.1758 36.786 26.1758C34.6538 26.1758 32.9253 27.9037 32.9253 30.0351C32.9253 32.1666 34.6538 33.8945 36.786 33.8945Z" stroke="#8D8E91" stroke-width="0.7" stroke-linecap="round" stroke-linejoin="round"/>
<path d="M42.3069 40.9333V40.9233" stroke="#8D8E91" stroke-width="0.7" stroke-linecap="round" stroke-linejoin="round"/>
<path d="M31.255 45.4026V41.1633C31.255 38.1038 33.725 35.6342 36.785 35.6342H36.805" stroke="#8D8E91" stroke-width="0.7" stroke-linecap="round" stroke-linejoin="round"/>
<path d="M46.1675 35.8642C48.2997 35.8642 50.0282 34.1363 50.0282 32.0049C50.0282 29.8734 48.2997 28.1455 46.1675 28.1455C44.0354 28.1455 42.3069 29.8734 42.3069 32.0049C42.3069 34.1363 44.0354 35.8642 46.1675 35.8642Z" stroke="#8D8E91" stroke-width="0.7" stroke-linecap="round" stroke-linejoin="round"/>
<path d="M43.047 38.5739C43.9272 37.9539 45.0074 37.5939 46.1675 37.5939C47.6978 37.5939 49.078 38.2139 50.0782 39.2139" stroke="#8D8E91" stroke-width="0.7" stroke-linecap="round" stroke-linejoin="round"/>
<path d="M39.1864 42.523C41.3185 42.523 43.047 40.7951 43.047 38.6637C43.047 36.5322 41.3185 34.8043 39.1864 34.8043C37.0542 34.8043 35.3257 36.5322 35.3257 38.6637C35.3257 40.7951 37.0542 42.523 39.1864 42.523Z" stroke="#8D8E91" stroke-width="0.7" stroke-linecap="round" stroke-linejoin="round"/>
<path d="M33.6654 53.5312V49.2819C33.6654 46.2324 36.1359 43.7528 39.1964 43.7528C42.2469 43.7528 44.7273 46.2224 44.7273 49.2819" stroke="#8D8E91" stroke-width="0.7" stroke-linecap="round" stroke-linejoin="round"/>
<path d="M13.8121 50.0318C8.84131 45.6025 5.59077 39.2536 5.25071 32.0848C4.5906 17.9371 15.5224 5.92914 29.6848 5.25925C34.6756 5.02929 39.3964 6.22909 43.4571 8.50871" stroke="#8D8E91" stroke-width="0.7" stroke-linecap="round" stroke-linejoin="round"/>
<path d="M41.8867 6.5293L43.3367 8.4193L40.9567 8.3093" stroke="#8D8E91" stroke-width="0.7" stroke-linecap="round" stroke-linejoin="round"/>
<path d="M51.0583 14.9476C54.3989 19.0469 56.4892 24.2161 56.7593 29.9051C57.4194 44.0528 46.4876 56.0708 32.3352 56.7307C27.3444 56.9606 22.6236 55.7608 18.5629 53.4812" stroke="#8D8E91" stroke-width="0.7" stroke-linecap="round" stroke-linejoin="round"/>
<path d="M20.1229 55.4612L18.6729 53.5712L21.0529 53.6812" stroke="#8D8E91" stroke-width="0.7" stroke-linecap="round" stroke-linejoin="round"/>
<path d="M36.356 24.4161V21.9065H43.4471L30.1549 8.62872L16.8627 21.9065H23.9539V23.4463" stroke="#8D8E91" stroke-width="0.7" stroke-linecap="round" stroke-linejoin="round"/>
</svg>
