<svg width="62" height="62" viewBox="0 0 62 62" fill="none" xmlns="http://www.w3.org/2000/svg">
<path d="M61 31C61 31.63 60.98 32.26 60.94 32.88C60.84 34.5 60.61 36.08 60.27 37.62C59.87 39.41 59.3 41.14 58.6 42.79C58.11 43.94 57.54 45.06 56.92 46.13C56.19 47.38 55.36 48.58 54.46 49.71C53.9 50.41 53.31 51.08 52.7 51.73C52.02 52.44 51.31 53.12 50.57 53.76C49.89 54.35 49.17 54.91 48.44 55.43C45.8 57.31 42.84 58.78 39.66 59.74C38.7 60.03 37.72 60.27 36.72 60.46C34.87 60.82 32.97 61 31.01 61C30.6 61 30.19 61 29.78 60.97C20.04 60.58 11.49 55.54 6.3 48.01C2.95 43.18 1 37.32 1 31C1 14.43 14.43 1 31 1C47.57 1 61 14.43 61 31Z" stroke="#818488" stroke-width="0.7" stroke-linecap="round" stroke-linejoin="round"/>
<path d="M14.44 24.85C14.44 23.51 13.36 22.43 12.02 22.43C10.68 22.43 9.60001 23.51 9.60001 24.85C9.60001 26.19 10.68 27.27 12.02 27.27C13.36 27.27 14.44 26.19 14.44 24.85Z" fill="#E41910"/>
<path d="M33.25 14.24L39.45 10.13L37.87 17.38" stroke="#8D8E91" stroke-width="0.7" stroke-linecap="round" stroke-linejoin="round"/>
<path d="M39.45 10.13L24.07 32.72L14.84 33.13L8.23001 43.2" stroke="#8D8E91" stroke-width="0.7" stroke-linecap="round" stroke-linejoin="round"/>
<path d="M20.74 36.23V46.04" stroke="#8D8E91" stroke-width="0.7" stroke-linecap="round" stroke-linejoin="round"/>
<path d="M15.84 41.14H25.64" stroke="#8D8E91" stroke-width="0.7" stroke-linecap="round" stroke-linejoin="round"/>
<path d="M21.52 10.52V23.85" stroke="#8D8E91" stroke-width="0.7" stroke-linecap="round" stroke-linejoin="round"/>
<path d="M14.86 17.18H28.19" stroke="#8D8E91" stroke-width="0.7" stroke-linecap="round" stroke-linejoin="round"/>
<path d="M37.89 39.09C40.9938 39.09 43.51 35.1994 43.51 30.4C43.51 25.6006 40.9938 21.71 37.89 21.71C34.7861 21.71 32.27 25.6006 32.27 30.4C32.27 35.1994 34.7861 39.09 37.89 39.09Z" stroke="#8D8E91" stroke-width="0.7" stroke-linecap="round" stroke-linejoin="round"/>
<path d="M37.55 37.5C39.98 37.5 41.96 34.32 41.96 30.4C41.96 26.48 39.99 23.3 37.55 23.3" stroke="#8D8E91" stroke-width="0.7" stroke-linecap="round" stroke-linejoin="round"/>
<path d="M37.89 21.71H40.59C43.69 21.71 46.21 25.6 46.21 30.4C46.21 35.2 43.7 39.09 40.59 39.09H37.79" stroke="#8D8E91" stroke-width="0.7" stroke-linecap="round" stroke-linejoin="round"/>
<path d="M43.09 23.68H41.63" stroke="#8D8E91" stroke-width="0.7" stroke-linecap="round" stroke-linejoin="round"/>
<path d="M45.26 30.85H43.7" stroke="#8D8E91" stroke-width="0.7" stroke-linecap="round" stroke-linejoin="round"/>
<path d="M43.14 36.86H41.83" stroke="#8D8E91" stroke-width="0.7" stroke-linecap="round" stroke-linejoin="round"/>
<path d="M46.59 46.39V48.17" stroke="#8D8E91" stroke-width="0.7" stroke-linecap="round" stroke-linejoin="round"/>
<path d="M41.18 46.39V48.17" stroke="#8D8E91" stroke-width="0.7" stroke-linecap="round" stroke-linejoin="round"/>
<path d="M35.72 46.39V48.17" stroke="#8D8E91" stroke-width="0.7" stroke-linecap="round" stroke-linejoin="round"/>
<path d="M32.66 46.39V48.17" stroke="#8D8E91" stroke-width="0.7" stroke-linecap="round" stroke-linejoin="round"/>
<path d="M30.36 48.98H48.55V45.58H30.36V48.98Z" stroke="#8D8E91" stroke-width="0.7" stroke-linecap="round" stroke-linejoin="round"/>
<path d="M46.59 41.78V43.57" stroke="#8D8E91" stroke-width="0.7" stroke-linecap="round" stroke-linejoin="round"/>
<path d="M41.18 41.78V43.57" stroke="#8D8E91" stroke-width="0.7" stroke-linecap="round" stroke-linejoin="round"/>
<path d="M35.72 41.78V43.57" stroke="#8D8E91" stroke-width="0.7" stroke-linecap="round" stroke-linejoin="round"/>
<path d="M32.66 41.78V43.57" stroke="#8D8E91" stroke-width="0.7" stroke-linecap="round" stroke-linejoin="round"/>
<path d="M30.36 44.39H48.55V40.99H30.36V44.39Z" stroke="#8D8E91" stroke-width="0.7" stroke-linecap="round" stroke-linejoin="round"/>
<path d="M49.23 31.21L53.78 28.2L52.9 33.22" stroke="#8D8E91" stroke-width="0.7" stroke-linecap="round" stroke-linejoin="round"/>
<path d="M52.18 30.53L51.34 31.77" stroke="#8D8E91" stroke-width="0.7" stroke-linecap="round" stroke-linejoin="round"/>
<path d="M50.13 33.55L48.32 36.22" stroke="#8D8E91" stroke-width="0.7" stroke-linecap="round" stroke-linejoin="round"/>
<path d="M47.72 37.11L46.88 38.35" stroke="#8D8E91" stroke-width="0.7" stroke-linecap="round" stroke-linejoin="round"/>
</svg>
