<svg width="62" height="62" viewBox="0 0 62 62" fill="none" xmlns="http://www.w3.org/2000/svg">
<path d="M31 61C47.5685 61 61 47.5685 61 31C61 14.4315 47.5685 1 31 1C14.4315 1 1 14.4315 1 31C1 47.5685 14.4315 61 31 61Z" stroke="#818488" stroke-width="0.7" stroke-linecap="round" stroke-linejoin="round"/>
<path d="M44.5946 36.8019C44.5946 35.4615 43.5142 34.3811 42.1738 34.3811C40.8333 34.3811 39.753 35.4615 39.753 36.8019C39.753 38.1424 40.8333 39.2227 42.1738 39.2227C43.5142 39.2227 44.5946 38.1424 44.5946 36.8019Z" fill="#E41910"/>
<path d="M53.2875 22.8173L30.83 6.74191L8.9227 22.7372L14.0244 22.9173L30.89 10.6032L48.1758 22.9773L53.2875 22.8173Z" stroke="#8D8E91" stroke-width="0.7" stroke-linecap="round" stroke-linejoin="round"/>
<path d="M7.85233 25.7182H23.2975" stroke="#8D8E91" stroke-width="0.7" stroke-linecap="round" stroke-linejoin="round"/>
<path d="M11.8336 47.4755H50.3765" stroke="#8D8E91" stroke-width="0.7" stroke-linecap="round" stroke-linejoin="round"/>
<path d="M16.6052 50.5565H45.5949" stroke="#8D8E91" stroke-width="0.7" stroke-linecap="round" stroke-linejoin="round"/>
<path d="M21.6969 54.1477H40.5132" stroke="#8D8E91" stroke-width="0.7" stroke-linecap="round" stroke-linejoin="round"/>
<path d="M38.2325 25.7182H54.3578" stroke="#8D8E91" stroke-width="0.7" stroke-linecap="round" stroke-linejoin="round"/>
<path d="M12.2738 27.5488V45.6149" stroke="#8D8E91" stroke-width="0.7" stroke-linecap="round" stroke-linejoin="round"/>
<path d="M16.6853 27.5488V45.6149" stroke="#8D8E91" stroke-width="0.7" stroke-linecap="round" stroke-linejoin="round"/>
<path d="M45.5949 44.4545V45.6145" stroke="#8D8E91" stroke-width="0.7" stroke-linecap="round" stroke-linejoin="round"/>
<path d="M50.0064 28.079V45.6149" stroke="#8D8E91" stroke-width="0.7" stroke-linecap="round" stroke-linejoin="round"/>
<path d="M46.5152 28.2391H37.8123V41.7936H46.5152V28.2391Z" stroke="#818488" stroke-width="0.7" stroke-linejoin="bevel"/>
<path d="M37.6722 40.1731L35.9217 41.2134C34.8513 41.8236 33.6509 42.1437 32.4205 42.1437H21.987C21.1968 42.1437 20.5565 41.5035 20.5565 40.7132C20.5565 40.2531 20.7766 39.8129 21.1567 39.5528L21.6569 39.1927L21.0567 39.0727C20.2664 38.9126 19.6963 38.2224 19.6963 37.4121C19.6963 36.7419 20.0864 36.1417 20.6966 35.8716L20.8666 35.7916L20.1364 35.4615C19.5462 35.1914 19.1661 34.5912 19.1661 33.941C19.1661 33.2507 19.5962 32.6305 20.2364 32.3805L20.8666 32.1404L20.3265 31.8503C19.7763 31.5502 19.4262 30.97 19.4262 30.3398C19.4262 29.3895 20.1964 28.6192 21.1467 28.6192H29.4895" stroke="#818488" stroke-width="0.7" stroke-linejoin="bevel"/>
<path d="M37.8323 29.1794L37.3321 28.8893C35.0714 27.6089 33.4909 25.3981 33.0007 22.8473L32.9007 22.3371C32.7606 21.5869 32.1004 21.0367 31.3301 21.0367C30.6399 21.0367 30.0197 21.4768 29.8096 22.137C29.4695 23.1774 29.2895 24.2678 29.2895 25.3681V28.7393" stroke="#818488" stroke-width="0.7" stroke-linejoin="bevel"/>
</svg>
