<svg width="102" height="102" viewBox="0 0 102 102" fill="none" xmlns="http://www.w3.org/2000/svg">
<path d="M101 51C101 60.1167 98.5492 68.6833 94.2811 76.0333C93.6642 77.0833 93.0307 78.1 92.3471 79.1C92.2971 79.2 92.2304 79.2833 92.1804 79.3667C91.1801 80.8167 90.113 82.2 88.9627 83.5333C88.8293 83.7 88.6626 83.8833 88.5125 84.05C87.829 84.8333 87.112 85.5833 86.3785 86.3167C86.2284 86.4667 86.0784 86.6 85.945 86.7333C85.5615 87.1167 85.1614 87.4833 84.7613 87.85C80.8099 91.4833 76.2584 94.4833 71.2901 96.7C66.2551 98.9333 60.7866 100.367 55.0347 100.833C53.7009 100.95 52.3505 101 51 101C48.3325 101 45.7149 100.8 43.1641 100.383C39.8963 99.8667 36.7453 99.05 33.7276 97.9333C29.5095 96.3833 25.5415 94.2833 21.957 91.7C21.8236 91.6 21.6903 91.5 21.5402 91.4C21.0234 91.0167 20.4899 90.6333 19.9897 90.2333C19.4562 89.8 18.9227 89.3667 18.4058 88.9167C18.0724 88.6333 17.7556 88.35 17.4222 88.05C16.5385 87.2333 15.6883 86.4 14.8547 85.5333C13.8043 84.4333 12.804 83.2833 11.8537 82.0833C11.787 82 11.7203 81.9167 11.6536 81.85C9.98636 79.7333 8.48586 77.4833 7.18543 75.1167C5.36816 71.8333 3.91768 68.3333 2.884 64.65C2.4005 62.9333 2.00037 61.2 1.70027 59.4167C1.23345 56.6833 1.00004 53.8667 1.00004 51C0.966693 23.3833 23.3575 1 50.9833 1C52.9173 1 54.8346 1.11667 56.7019 1.33333C73.3241 3.21667 87.4622 13.25 95.048 27.3333C97.6989 32.2667 99.5662 37.6833 100.433 43.4333C100.567 44.35 100.683 45.2833 100.767 46.2167C100.917 47.8 101 49.4 101 51.0167V51Z" stroke="#8D8E91" stroke-width="0.7" stroke-linecap="round" stroke-linejoin="round"/>
<path d="M50.7166 19.2166C49.5162 17.3333 47.0153 16.8 45.1314 18C43.2474 19.2 42.7139 21.7 43.9143 23.5833C45.1147 25.4666 47.6155 26 49.4995 24.8C51.3834 23.6 51.917 21.1 50.7166 19.2166Z" stroke="#8D8E91" stroke-width="0.7" stroke-linecap="round" stroke-linejoin="round"/>
<path d="M86.912 72.9333H65.5549V59.95H40.8633V78.9833H20.6232" stroke="#8D8E91" stroke-width="0.7" stroke-linecap="round" stroke-linejoin="round"/>
<path d="M55.835 42.5168L59.9197 55.0668C60.3365 56.3668 59.3695 57.7001 58.0024 57.7001C57.1521 57.7001 56.3852 57.1668 56.1017 56.3501L51.9837 44.5501C51.9003 44.3335 51.5836 44.3668 51.5669 44.6001L49.1327 55.8835C49.0494 56.9335 48.1824 57.7501 47.1321 57.7501H46.8486C45.6816 57.7501 44.7646 56.7668 44.848 55.6168L47.4488 40.0001L46.882 33.4335C46.8653 33.1835 46.5319 33.1001 46.3985 33.3168L44.9814 35.4668C44.6479 35.9668 44.4812 36.5501 44.4812 37.1501V40.8668C44.4812 41.7335 43.781 42.4168 42.9307 42.4168C42.0637 42.4168 41.3802 41.7168 41.3802 40.8668V35.8335C41.3802 35.1501 41.5969 34.5001 42.0137 33.9668L45.2981 29.7001C45.965 28.8335 46.982 28.3335 48.0824 28.3335H49.3828C50.8166 28.3335 52.1504 27.6668 53.0174 26.5335L58.2691 19.6835C58.8526 18.9335 59.9363 18.8001 60.6699 19.4001C61.3701 19.9668 61.5035 20.9835 60.97 21.7001L55.6849 28.9501C54.968 29.9335 54.5846 31.1168 54.5846 32.3335" stroke="#8D8E91" stroke-width="0.7" stroke-linecap="round" stroke-linejoin="round"/>
<path d="M32.1271 40.9501C30.9267 39.0668 28.4258 38.5335 26.5419 39.7335C24.6579 40.9335 24.1244 43.4335 25.3248 45.3168C26.5252 47.2001 29.026 47.7335 30.91 46.5335C32.794 45.3335 33.3275 42.8335 32.1271 40.9501Z" stroke="#8D8E91" stroke-width="0.7" stroke-linecap="round" stroke-linejoin="round"/>
<path d="M33.5443 63.7835H33.6776C34.5446 63.7835 35.2281 63.0835 35.2281 62.2335V55.1501C35.2281 51.5668 32.3105 48.6501 28.726 48.6501C25.1415 48.6501 22.2238 51.5668 22.2238 55.1501V62.2335C22.2238 63.1001 22.924 63.7835 23.7743 63.7835" stroke="#8D8E91" stroke-width="0.7" stroke-linecap="round" stroke-linejoin="round"/>
<path d="M24.4579 55.2001V74.9834C24.4579 75.9834 25.2749 76.8001 26.2752 76.8001C27.2755 76.8001 28.0925 75.9834 28.0925 74.9834V66.0334H29.4929V74.9834C29.4929 75.9834 30.3099 76.8001 31.3102 76.8001H31.4602C32.4606 76.8001 33.2775 75.9834 33.2775 74.9834V55.3501" stroke="#8D8E91" stroke-width="0.7" stroke-linecap="round" stroke-linejoin="round"/>
<path d="M79.4594 34.8167C78.259 32.9334 75.7582 32.4 73.8743 33.6C71.9903 34.8 71.4568 37.3 72.6572 39.1834C73.8576 41.0667 76.3584 41.6 78.2424 40.4C80.1263 39.2 80.6598 36.7 79.4594 34.8167Z" stroke="#8D8E91" stroke-width="0.7" stroke-linecap="round" stroke-linejoin="round"/>
<path d="M80.8766 57.6501H81.01C81.8769 57.6501 82.5605 56.9501 82.5605 56.1001V49.0167C82.5605 45.4334 79.6428 42.5167 76.0583 42.5167C72.4738 42.5167 69.5562 45.4334 69.5562 49.0167V56.1001C69.5562 56.9667 70.2564 57.6501 71.1067 57.6501" stroke="#8D8E91" stroke-width="0.7" stroke-linecap="round" stroke-linejoin="round"/>
<path d="M71.8069 49.0667V68.85C71.8069 69.85 72.6238 70.6667 73.6241 70.6667C74.6245 70.6667 75.4414 69.85 75.4414 68.85V59.9H76.8419V68.85C76.8419 69.85 77.6588 70.6667 78.6591 70.6667H78.8092C79.8095 70.6667 80.6265 69.85 80.6265 68.85V49.2167" stroke="#8D8E91" stroke-width="0.7" stroke-linecap="round" stroke-linejoin="round"/>
<path d="M56.6852 35.2C55.4848 33.3167 52.984 32.7833 51.1 33.9833C49.2161 35.1833 48.6826 37.6834 49.883 39.5667C51.0834 41.45 53.5842 41.9833 55.4682 40.7833C57.3521 39.5833 57.8856 37.0834 56.6852 35.2Z" fill="#E41910"/>
<path d="M46.9653 28.4999L51.6836 32.5333L52.3338 27.2666" stroke="#8D8E91" stroke-width="0.7" stroke-linecap="round" stroke-linejoin="round"/>
<path d="M25.4748 50.0833L29.0927 55.4667L32.3437 49.75" stroke="#8D8E91" stroke-width="0.7" stroke-linecap="round" stroke-linejoin="round"/>
<path d="M73.3241 43.1334L76.075 49.0668L79.5428 43.5334" stroke="#8D8E91" stroke-width="0.7" stroke-linecap="round" stroke-linejoin="round"/>
</svg>
