<svg width="102" height="102" viewBox="0 0 102 102" fill="none" xmlns="http://www.w3.org/2000/svg">
<path d="M101 51C101 52.05 100.967 53.1 100.9 54.1333C100.733 56.8333 100.35 59.4667 99.7833 62.0333C99.1167 65.0167 98.1667 67.9 97 70.65C96.1833 72.5667 95.2333 74.4333 94.2 76.2167C92.9833 78.3 91.6 80.3 90.1 82.1833C89.1667 83.35 88.1833 84.4667 87.1667 85.55C86.0333 86.7333 84.85 87.8667 83.6167 88.9333C82.4833 89.9167 81.2833 90.85 80.0667 91.7167C75.6667 94.85 70.7333 97.3 65.4333 98.9C63.8333 99.3833 62.2 99.7833 60.5333 100.1C57.45 100.7 54.2833 101 51.0167 101C50.3333 101 49.65 101 48.9667 100.95C32.7333 100.3 18.4833 91.9 9.83333 79.35C4.25 71.3 1 61.5333 1 51C1 23.3833 23.3833 1 51 1C78.6167 1 101 23.3833 101 51Z" stroke="#818488" stroke-width="0.7" stroke-linecap="round" stroke-linejoin="round"/>
<path d="M23.6166 49.1162C23.6166 46.8828 21.8166 45.0828 19.5833 45.0828C17.35 45.0828 15.55 46.8828 15.55 49.1162C15.55 51.3495 17.35 53.1495 19.5833 53.1495C21.8166 53.1495 23.6166 51.3495 23.6166 49.1162Z" fill="#E41910"/>
<path d="M53.1167 49.9998C53.1167 57.9998 57.3 64.4831 62.4833 64.4831C67.6667 64.4831 71.85 57.9998 71.85 49.9998C71.85 46.4665 71.0333 43.2331 69.6833 40.7331C69.6833 40.7331 69.1833 39.8165 68.6333 39.3331" stroke="#8D8E91" stroke-width="0.7" stroke-linecap="round" stroke-linejoin="round"/>
<path d="M61.9167 61.8331C65.9667 61.8331 69.2667 56.5331 69.2667 49.9998C69.2667 46.9831 68.5667 44.2331 67.4167 42.1498" stroke="#8D8E91" stroke-width="0.7" stroke-linecap="round" stroke-linejoin="round"/>
<path d="M62.3167 64.4831H66.9833C72.15 64.4831 76.35 57.9998 76.35 49.9998C76.35 45.3165 74.9167 41.1498 72.6833 38.4998C72.6833 38.4998 71.85 37.5831 71.1333 37.0498" stroke="#8D8E91" stroke-width="0.7" stroke-linecap="round" stroke-linejoin="round"/>
<path d="M74.7667 50.7498H72.1667" stroke="#8D8E91" stroke-width="0.7" stroke-linecap="round" stroke-linejoin="round"/>
<path d="M71.2333 60.7664H69.05" stroke="#8D8E91" stroke-width="0.7" stroke-linecap="round" stroke-linejoin="round"/>
<path d="M76.9834 76.6498V79.6165" stroke="#8D8E91" stroke-width="0.7" stroke-linecap="round" stroke-linejoin="round"/>
<path d="M67.9667 76.6498V79.6165" stroke="#8D8E91" stroke-width="0.7" stroke-linecap="round" stroke-linejoin="round"/>
<path d="M58.8667 76.6498V79.6165" stroke="#8D8E91" stroke-width="0.7" stroke-linecap="round" stroke-linejoin="round"/>
<path d="M53.7667 76.6498V79.6165" stroke="#8D8E91" stroke-width="0.7" stroke-linecap="round" stroke-linejoin="round"/>
<path d="M49.9334 80.9666H80.25V75.2999H49.9334V80.9666Z" stroke="#8D8E91" stroke-width="0.7" stroke-linecap="round" stroke-linejoin="round"/>
<path d="M76.9834 68.9664V71.9498" stroke="#8D8E91" stroke-width="0.7" stroke-linecap="round" stroke-linejoin="round"/>
<path d="M67.9667 68.9664V71.9498" stroke="#8D8E91" stroke-width="0.7" stroke-linecap="round" stroke-linejoin="round"/>
<path d="M58.8667 68.9664V71.9498" stroke="#8D8E91" stroke-width="0.7" stroke-linecap="round" stroke-linejoin="round"/>
<path d="M53.7667 68.9664V71.9498" stroke="#8D8E91" stroke-width="0.7" stroke-linecap="round" stroke-linejoin="round"/>
<path d="M49.9334 73.3165H80.25V67.6498H49.9334V73.3165Z" stroke="#8D8E91" stroke-width="0.7" stroke-linecap="round" stroke-linejoin="round"/>
<path d="M38.5333 49.1168C43.8444 49.1168 48.15 44.8113 48.15 39.5002C48.15 34.189 43.8444 29.8835 38.5333 29.8835C33.2222 29.8835 28.9166 34.189 28.9166 39.5002C28.9166 44.8113 33.2222 49.1168 38.5333 49.1168Z" stroke="#8D8E91" stroke-width="0.7" stroke-linecap="round" stroke-linejoin="round"/>
<path d="M42.8666 52.8668C43.7833 53.1334 44.6666 53.5001 45.5 53.9501C49.3625 55.9901 52.2261 59.6838 53.1491 64.0892" stroke="#8D8E91" stroke-width="0.7" stroke-linecap="round" stroke-linejoin="round"/>
<path d="M31.7166 73.3335L37.3 78.0668C38.8666 79.4002 39.0666 81.7502 37.7166 83.3168C36.4 84.8502 34.1 85.0502 32.55 83.7668L25.35 77.8668C24.25 76.9668 23.6166 75.6335 23.6166 74.2168V67.1668C23.6166 63.0335 25.2833 59.3002 27.9833 56.6002C29.0666 55.5335 30.2833 54.6335 31.65 53.9168C32.4666 53.4835 33.35 53.1335 34.25 52.8502" stroke="#8D8E91" stroke-width="0.7" stroke-linecap="round" stroke-linejoin="round"/>
<path d="M42.8667 52.8668L38.6 59.6502L34.25 52.8502" stroke="#8D8E91" stroke-width="0.7" stroke-linecap="round" stroke-linejoin="round"/>
<path d="M47.1 54.9335L38.6833 67.3502L30.0667 54.8835" stroke="#8D8E91" stroke-width="0.7" stroke-linecap="round" stroke-linejoin="round"/>
<path d="M48.1833 64.0501L37.55 77.3168" stroke="#8D8E91" stroke-width="0.7" stroke-linecap="round" stroke-linejoin="round"/>
<path d="M67.7 26.9163L75.3 21.883L73.3667 30.7663" stroke="#8D8E91" stroke-width="0.7" stroke-linecap="round" stroke-linejoin="round"/>
<path d="M74.2166 23.2998L64.0499 38.2831L59.4666 34.8498L50.2999 48.0331" stroke="#8D8E91" stroke-width="0.7" stroke-linecap="round" stroke-linejoin="round"/>
<path d="M55.7166 25.15L63.3166 20.1333L61.8499 28.5" stroke="#8D8E91" stroke-width="0.7" stroke-linecap="round" stroke-linejoin="round"/>
<path d="M60.6333 24.0168L59.2333 26.0835" stroke="#8D8E91" stroke-width="0.7" stroke-linecap="round" stroke-linejoin="round"/>
<path d="M57.2333 29.0501L54.2166 33.5001" stroke="#8D8E91" stroke-width="0.7" stroke-linecap="round" stroke-linejoin="round"/>
<path d="M53.1999 34.9835L51.7999 37.0501" stroke="#8D8E91" stroke-width="0.7" stroke-linecap="round" stroke-linejoin="round"/>
</svg>
