<svg width="62" height="62" viewBox="0 0 62 62" fill="none" xmlns="http://www.w3.org/2000/svg">
<path d="M44.3165 18.8474C44.3165 17.5974 43.3065 16.5874 42.0565 16.5874C40.8065 16.5874 39.7965 17.5974 39.7965 18.8474C39.7965 20.0974 40.8065 21.1074 42.0565 21.1074C43.3065 21.1074 44.3165 20.0974 44.3165 18.8474Z" fill="#E41910"/>
<path d="M30.995 17.307C34.0828 17.307 36.586 14.8047 36.586 11.718C36.586 8.63122 34.0828 6.12891 30.995 6.12891C27.9072 6.12891 25.4041 8.63122 25.4041 11.718C25.4041 14.8047 27.9072 17.307 30.995 17.307Z" stroke="#8D8E91" stroke-width="0.7" stroke-linecap="round" stroke-linejoin="round"/>
<path d="M28.4746 19.4868C27.9445 19.6468 27.4244 19.8468 26.9443 20.1167C24.1939 21.5765 22.3135 24.466 22.3135 27.7954" stroke="#8D8E91" stroke-width="0.7" stroke-linecap="round" stroke-linejoin="round"/>
<path d="M39.6765 27.7957C39.6765 25.3961 38.7063 23.2264 37.136 21.6567C36.5059 21.0368 35.8058 20.5069 35.0057 20.0969C34.5256 19.847 34.0155 19.637 33.4954 19.4771" stroke="#8D8E91" stroke-width="0.7" stroke-linecap="round" stroke-linejoin="round"/>
<path d="M28.4745 19.4871L30.9645 23.4271L33.4945 19.4771" stroke="#8D8E91" stroke-width="0.7" stroke-linecap="round" stroke-linejoin="round"/>
<path d="M26.4543 20.4062L30.925 26.9951L35.4958 20.3862" stroke="#8D8E91" stroke-width="0.7" stroke-linecap="round" stroke-linejoin="round"/>
<path d="M61 30.995C61 39.0337 57.8395 46.3324 52.6886 51.7215C52.0085 52.4314 51.2984 53.1113 50.5583 53.7512C49.8781 54.3411 49.158 54.901 48.4279 55.4309C44.4872 58.2405 39.8465 60.1301 34.8056 60.76C33.5554 60.92 32.2852 61 30.995 61C24.3539 61 18.2129 58.8404 13.252 55.191C10.5516 53.2113 8.1912 50.7817 6.28088 48.0222C5.11069 46.3324 4.11052 44.5027 3.31039 42.5831C2.08018 39.6336 1.30005 36.4541 1.07001 33.1146C1.02 32.4148 1 31.7149 1 31.015C1 26.0358 2.2102 21.3366 4.36056 17.2073C5.26071 15.4776 6.32089 13.8479 7.52109 12.3381C13.012 5.41926 21.4934 1 30.995 1C47.5678 1 61 14.4278 61 30.995Z" stroke="#8D8E91" stroke-width="0.7" stroke-linecap="round" stroke-linejoin="round"/>
<path d="M17.3023 39.4346C18.9481 39.4346 20.2823 38.1004 20.2823 36.4546C20.2823 34.8088 18.9481 33.4746 17.3023 33.4746C15.6565 33.4746 14.3223 34.8088 14.3223 36.4546C14.3223 38.1004 15.6565 39.4346 17.3023 39.4346Z" stroke="#8D8E91" stroke-width="0.7" stroke-linecap="round" stroke-linejoin="round"/>
<path d="M15.962 40.5933C15.682 40.6732 15.402 40.7832 15.142 40.9232C13.672 41.7031 12.672 43.2428 12.672 45.0125V49.5518C12.672 50.1817 13.182 50.6816 13.802 50.6816C14.432 50.6816 14.932 50.1717 14.932 49.5518V48.162" stroke="#8D8E91" stroke-width="0.7" stroke-linecap="round" stroke-linejoin="round"/>
<path d="M19.4127 46.922L17.6827 48.3917C17.1927 48.8016 17.1427 49.5315 17.5527 50.0114C17.9627 50.4814 18.6727 50.5513 19.1527 50.1514L21.3827 48.3217C21.7227 48.0418 21.9227 47.6318 21.9227 47.1919V45.0123C21.9227 43.7325 21.4027 42.5727 20.5727 41.7428C20.2427 41.4129 19.8627 41.1329 19.4427 40.913C19.1927 40.783 18.9127 40.673 18.6327 40.583" stroke="#8D8E91" stroke-width="0.7" stroke-linecap="round" stroke-linejoin="round"/>
<path d="M14.6623 41.2234L17.2523 45.0434L19.9023 41.1934" stroke="#8D8E91" stroke-width="0.7" stroke-linecap="round" stroke-linejoin="round"/>
<path d="M14.3123 44.0527L17.6023 48.1527" stroke="#8D8E91" stroke-width="0.7" stroke-linecap="round" stroke-linejoin="round"/>
<path d="M44.6868 39.4346C46.3327 39.4346 47.6668 38.1004 47.6668 36.4546C47.6668 34.8088 46.3327 33.4746 44.6868 33.4746C43.041 33.4746 41.7068 34.8088 41.7068 36.4546C41.7068 38.1004 43.041 39.4346 44.6868 39.4346Z" stroke="#8D8E91" stroke-width="0.7" stroke-linecap="round" stroke-linejoin="round"/>
<path d="M43.3466 40.5933C43.0666 40.6732 42.7866 40.7832 42.5266 40.9232C41.0566 41.7031 40.0566 43.2428 40.0566 45.0125V49.5518C40.0566 50.1817 40.5666 50.6816 41.1866 50.6816C41.8166 50.6816 42.3166 50.1717 42.3166 49.5518V48.162" stroke="#8D8E91" stroke-width="0.7" stroke-linecap="round" stroke-linejoin="round"/>
<path d="M46.8073 46.922L45.0773 48.3917C44.5873 48.8016 44.5373 49.5315 44.9473 50.0114C45.3573 50.4814 46.0673 50.5513 46.5473 50.1514L48.7773 48.3217C49.1173 48.0418 49.3173 47.6318 49.3173 47.1919V45.0123C49.3173 43.7325 48.7973 42.5727 47.9673 41.7428C47.6373 41.4129 47.2573 41.1329 46.8373 40.913C46.5873 40.783 46.3073 40.673 46.0273 40.583" stroke="#8D8E91" stroke-width="0.7" stroke-linecap="round" stroke-linejoin="round"/>
<path d="M42.0569 41.2234L44.6469 45.0434L47.2969 41.1934" stroke="#8D8E91" stroke-width="0.7" stroke-linecap="round" stroke-linejoin="round"/>
<path d="M41.7068 44.0527L44.9968 48.1527" stroke="#8D8E91" stroke-width="0.7" stroke-linecap="round" stroke-linejoin="round"/>
<path d="M31.1146 43.4341C32.7604 43.4341 34.0946 42.0999 34.0946 40.4541C34.0946 38.8083 32.7604 37.4741 31.1146 37.4741C29.4688 37.4741 28.1346 38.8083 28.1346 40.4541C28.1346 42.0999 29.4688 43.4341 31.1146 43.4341Z" stroke="#8D8E91" stroke-width="0.7" stroke-linecap="round" stroke-linejoin="round"/>
<path d="M29.7843 44.5928C29.5043 44.6728 29.2243 44.7827 28.9643 44.9227C27.4943 45.7026 26.4943 47.2423 26.4943 49.012V53.5513C26.4943 54.1812 27.0043 54.6811 27.6243 54.6811C28.2543 54.6811 28.7543 54.1712 28.7543 53.5513V52.1615" stroke="#8D8E91" stroke-width="0.7" stroke-linecap="round" stroke-linejoin="round"/>
<path d="M33.2351 50.9215L31.5051 52.3912C31.0151 52.8012 30.9651 53.531 31.3751 54.0109C31.7851 54.4809 32.4951 54.5509 32.9751 54.1509L35.2051 52.3212C35.5451 52.0413 35.7451 51.6313 35.7451 51.1914V49.0118C35.7451 47.732 35.2251 46.5722 34.3951 45.7423C34.0651 45.4124 33.6851 45.1324 33.2651 44.9125C33.0151 44.7825 32.7351 44.6725 32.4551 44.5825" stroke="#8D8E91" stroke-width="0.7" stroke-linecap="round" stroke-linejoin="round"/>
<path d="M28.4846 45.2229L31.0746 49.0429L33.7246 45.1929" stroke="#8D8E91" stroke-width="0.7" stroke-linecap="round" stroke-linejoin="round"/>
<path d="M28.1346 48.0522L31.4246 52.1522" stroke="#8D8E91" stroke-width="0.7" stroke-linecap="round" stroke-linejoin="round"/>
<path d="M17.3027 31.6157V29.3457C17.3027 28.6557 17.8628 28.0957 18.5529 28.0957H43.4171C44.1072 28.0957 44.6673 28.6557 44.6673 29.3457V31.6157" stroke="#8D8E91" stroke-width="0.7" stroke-linecap="round" stroke-linejoin="round"/>
<path d="M31.115 28.4756V35.6144" stroke="#8D8E91" stroke-width="0.7" stroke-linecap="round" stroke-linejoin="round"/>
</svg>
