<svg width="62" height="62" viewBox="0 0 62 62" fill="none" xmlns="http://www.w3.org/2000/svg">
<path d="M27.0837 45.1033C27.0837 43.8533 26.0737 42.8433 24.8237 42.8433C23.5737 42.8433 22.5637 43.8533 22.5637 45.1033C22.5637 46.3533 23.5737 47.3633 24.8237 47.3633C26.0737 47.3633 27.0837 46.3533 27.0837 45.1033Z" fill="#E41910"/>
<path d="M61 30.995C61 39.0337 57.8395 46.3324 52.6886 51.7215C52.0085 52.4314 51.2984 53.1113 50.5583 53.7512C49.8781 54.3411 49.158 54.901 48.4279 55.4309C44.4872 58.2405 39.8465 60.1301 34.8056 60.76C33.5554 60.92 32.2852 61 30.995 61C24.3539 61 18.2129 58.8404 13.252 55.191C10.5516 53.2113 8.1912 50.7817 6.28088 48.0222C5.11069 46.3324 4.11052 44.5027 3.31039 42.5831C2.08018 39.6336 1.30005 36.4541 1.07001 33.1146C1.02 32.4148 1 31.7149 1 31.015C1 26.0358 2.2102 21.3366 4.36056 17.2073C5.26071 15.4776 6.32089 13.8479 7.52109 12.3381C13.012 5.41926 21.4934 1 30.995 1C47.5678 1 61 14.4278 61 30.995Z" stroke="#8D8E91" stroke-width="0.7" stroke-linecap="round" stroke-linejoin="round"/>
<path d="M17.0326 28.8752C19.8056 28.8752 22.0535 26.6281 22.0535 23.8561C22.0535 21.0841 19.8056 18.8369 17.0326 18.8369C14.2597 18.8369 12.0118 21.0841 12.0118 23.8561C12.0118 26.6281 14.2597 28.8752 17.0326 28.8752Z" stroke="#8D8E91" stroke-width="0.7" stroke-linecap="round" stroke-linejoin="round"/>
<path d="M9.24136 44.2726V38.2936C9.24136 33.9943 12.7319 30.5049 17.0327 30.5049C21.3334 30.5049 24.824 33.9943 24.824 38.2936" stroke="#8D8E91" stroke-width="0.7" stroke-linecap="round" stroke-linejoin="round"/>
<path d="M18.3127 30.7549L17.2927 32.3549" stroke="#8D8E91" stroke-width="0.7" stroke-linecap="round" stroke-linejoin="round"/>
<path d="M16.7824 32.3549L15.7824 30.7549" stroke="#8D8E91" stroke-width="0.7" stroke-linecap="round" stroke-linejoin="round"/>
<path d="M17.2924 32.3545L18.3124 39.7233L17.0324 41.543L15.7824 39.7233L16.7824 32.3545H17.2924Z" stroke="#8D8E91" stroke-width="0.7" stroke-linecap="round" stroke-linejoin="round"/>
<path d="M13.4221 15.9374H26.0042V10.2783L35.3158 20.6666L26.0042 29.935V25.3458" stroke="#8D8E91" stroke-width="0.7" stroke-linecap="round" stroke-linejoin="round"/>
<path d="M44.0072 27.5454C47.3159 27.5454 49.9982 24.864 49.9982 21.5564C49.9982 18.2487 47.3159 15.5674 44.0072 15.5674C40.6984 15.5674 38.0162 18.2487 38.0162 21.5564C38.0162 24.864 40.6984 27.5454 44.0072 27.5454Z" stroke="#8D8E91" stroke-width="0.7" stroke-linecap="round" stroke-linejoin="round"/>
<path d="M41.3167 29.875C40.7466 30.045 40.1966 30.2649 39.6765 30.5449C36.726 32.1046 34.7156 35.2041 34.7156 38.7735V47.902C34.7156 49.1618 35.7358 50.1816 36.996 50.1816C38.2562 50.1816 39.2764 49.1618 39.2764 47.902V45.1025" stroke="#8D8E91" stroke-width="0.7" stroke-linecap="round" stroke-linejoin="round"/>
<path d="M48.2579 42.6226L44.7773 45.5721C43.7971 46.402 43.6771 47.8617 44.5173 48.8416C45.3374 49.8014 46.7676 49.9214 47.7378 49.1215L52.2286 45.4421C52.9087 44.8822 53.3087 44.0424 53.3087 43.1625V38.7733C53.3087 36.2037 52.2686 33.8741 50.5883 32.1944C49.9182 31.5345 49.158 30.9646 48.3079 30.5246C47.7978 30.2547 47.2477 30.0347 46.6876 29.8647" stroke="#8D8E91" stroke-width="0.7" stroke-linecap="round" stroke-linejoin="round"/>
<path d="M41.3167 29.8747L43.9767 34.0947L46.6867 29.8647" stroke="#8D8E91" stroke-width="0.7" stroke-linecap="round" stroke-linejoin="round"/>
<path d="M38.6763 31.1748L43.9172 38.9035L49.2881 31.1348" stroke="#8D8E91" stroke-width="0.7" stroke-linecap="round" stroke-linejoin="round"/>
<path d="M38.0062 36.8438L44.6273 45.1024" stroke="#8D8E91" stroke-width="0.7" stroke-linecap="round" stroke-linejoin="round"/>
</svg>
