<svg width="62" height="62" viewBox="0 0 62 62" fill="none" xmlns="http://www.w3.org/2000/svg">
<path d="M43.3378 23.4265C43.3378 22.1765 42.3275 21.1665 41.0771 21.1665C39.8267 21.1665 38.8163 22.1765 38.8163 23.4265C38.8163 24.6765 39.8267 25.6865 41.0771 25.6865C42.3275 25.6865 43.3378 24.6765 43.3378 23.4265Z" fill="#E41910"/>
<path d="M61 30.995C61 39.0337 57.8395 46.3324 52.6886 51.7215C52.0085 52.4314 51.2984 53.1113 50.5583 53.7512C49.8781 54.3411 49.158 54.901 48.4279 55.4309C44.4872 58.2405 39.8465 60.1301 34.8056 60.76C33.5554 60.92 32.2852 61 30.995 61C24.3539 61 18.2129 58.8404 13.252 55.191C10.5516 53.2113 8.1912 50.7817 6.28088 48.0222C5.11069 46.3324 4.11052 44.5027 3.31039 42.5831C2.08018 39.6336 1.30005 36.4541 1.07001 33.1146C1.02 32.4148 1 31.7149 1 31.015C1 26.0358 2.2102 21.3366 4.36056 17.2073C5.26071 15.4776 6.32089 13.8479 7.52109 12.3381C13.012 5.41926 21.4934 1 30.995 1C47.5678 1 61 14.4278 61 30.995Z" stroke="#8D8E91" stroke-width="0.7" stroke-linecap="round" stroke-linejoin="round"/>
<path d="M25.5141 26.1956C29.4581 26.1956 32.6553 22.9994 32.6553 19.0568C32.6553 15.1141 29.4581 11.918 25.5141 11.918C21.5702 11.918 18.373 15.1141 18.373 19.0568C18.373 22.9994 21.5702 26.1956 25.5141 26.1956Z" stroke="#8D8E91" stroke-width="0.7" stroke-linecap="round" stroke-linejoin="round"/>
<path d="M28.7247 28.9849C29.4048 29.1848 30.0649 29.4448 30.675 29.7847C34.1956 31.6444 36.586 35.3338 36.586 39.5931V50.4713C36.586 51.971 35.3658 53.1908 33.8655 53.1908C32.3653 53.1908 31.1451 51.971 31.1451 50.4713V47.1318" stroke="#8D8E91" stroke-width="0.7" stroke-linecap="round" stroke-linejoin="round"/>
<path d="M20.4433 44.1723L24.594 47.6917C25.7642 48.6816 25.9042 50.4213 24.9041 51.5811C23.9339 52.7209 22.2236 52.8709 21.0634 51.921L15.7125 47.5417C14.9024 46.8719 14.4223 45.882 14.4223 44.8222V39.5831C14.4223 36.5236 15.6625 33.744 17.6628 31.7444C18.463 30.9545 19.3631 30.2746 20.3833 29.7547C20.9934 29.4348 21.6435 29.1748 22.3136 28.9648" stroke="#8D8E91" stroke-width="0.7" stroke-linecap="round" stroke-linejoin="round"/>
<path d="M28.7247 28.9851L25.5541 34.0143L22.3236 28.9751" stroke="#8D8E91" stroke-width="0.7" stroke-linecap="round" stroke-linejoin="round"/>
<path d="M31.5252 30.2951L25.6042 39.0237L19.5532 30.2451" stroke="#8D8E91" stroke-width="0.7" stroke-linecap="round" stroke-linejoin="round"/>
<path d="M32.6653 37.2939L24.774 47.1323" stroke="#8D8E91" stroke-width="0.7" stroke-linecap="round" stroke-linejoin="round"/>
<path d="M16.7826 15.9976H12.5019V36.6141" stroke="#8D8E91" stroke-width="0.7" stroke-linecap="round" stroke-linejoin="round"/>
<path d="M39.0864 41.0834H49.8482V15.9976H34.9457" stroke="#8D8E91" stroke-width="0.7" stroke-linecap="round" stroke-linejoin="round"/>
</svg>
