<svg width="62" height="62" viewBox="0 0 62 62" fill="none" xmlns="http://www.w3.org/2000/svg">
<path d="M51.7277 41.1936C51.7277 39.9436 50.7177 38.9336 49.4677 38.9336C48.2177 38.9336 47.2077 39.9436 47.2077 41.1936C47.2077 42.4436 48.2177 43.4536 49.4677 43.4536C50.7177 43.4536 51.7277 42.4436 51.7277 41.1936Z" fill="#E41910"/>
<path d="M21.8235 24.3159C24.3092 24.3159 26.3242 22.3015 26.3242 19.8166C26.3242 17.3318 24.3092 15.3174 21.8235 15.3174C19.3378 15.3174 17.3227 17.3318 17.3227 19.8166C17.3227 22.3015 19.3378 24.3159 21.8235 24.3159Z" stroke="#8D8E91" stroke-width="0.7" stroke-linecap="round" stroke-linejoin="round"/>
<path d="M19.8024 26.0654C19.3724 26.1954 18.9624 26.3554 18.5724 26.5653C16.3524 27.7352 14.8524 30.0648 14.8524 32.7443" stroke="#8D8E91" stroke-width="0.7" stroke-linecap="round" stroke-linejoin="round"/>
<path d="M28.8038 32.7445C28.8038 30.8149 28.0238 29.0652 26.7638 27.8054C26.2638 27.3055 25.6938 26.8855 25.0538 26.5556C24.6738 26.3556 24.2538 26.1856 23.8338 26.0557" stroke="#8D8E91" stroke-width="0.7" stroke-linecap="round" stroke-linejoin="round"/>
<path d="M17.8829 26.9853L21.7535 32.6953L25.7142 26.9653" stroke="#8D8E91" stroke-width="0.7" stroke-linecap="round" stroke-linejoin="round"/>
<path d="M19.9332 26.1855L21.7932 28.9255L23.6832 26.1855" stroke="#8D8E91" stroke-width="0.7" stroke-linecap="round" stroke-linejoin="round"/>
<path d="M61 30.995C61 39.0337 57.8395 46.3324 52.6886 51.7215C52.0085 52.4314 51.2984 53.1113 50.5583 53.7512C49.8781 54.3411 49.158 54.901 48.4279 55.4309C44.4872 58.2405 39.8465 60.1301 34.8056 60.76C33.5554 60.92 32.2852 61 30.995 61C24.3539 61 18.2129 58.8404 13.252 55.191C10.5516 53.2113 8.1912 50.7817 6.28088 48.0222C5.11069 46.3324 4.11052 44.5027 3.31039 42.5831C2.08018 39.6336 1.30005 36.4541 1.07001 33.1146C1.02 32.4148 1 31.7149 1 31.015C1 26.0358 2.2102 21.3366 4.36056 17.2073C5.26071 15.4776 6.32089 13.8479 7.52109 12.3381C13.012 5.41926 21.4934 1 30.995 1C47.5678 1 61 14.4278 61 30.995Z" stroke="#8D8E91" stroke-width="0.7" stroke-linecap="round" stroke-linejoin="round"/>
<path d="M35.3157 26.3059L41.2067 35.4944L47.5278 25.4761L50.5583 27.7857L41.2767 41.4734L32.5253 28.4656L35.3157 26.3059Z" stroke="#8D8E91" stroke-width="0.7" stroke-linecap="round" stroke-linejoin="round"/>
<path d="M14.8423 36.4541H32.5253" stroke="#8D8E91" stroke-width="0.7" stroke-linecap="round" stroke-linejoin="round"/>
<path d="M14.8423 41.1929H32.5253" stroke="#8D8E91" stroke-width="0.7" stroke-linecap="round" stroke-linejoin="round"/>
<path d="M14.8423 45.9424H44.0272" stroke="#8D8E91" stroke-width="0.7" stroke-linecap="round" stroke-linejoin="round"/>
</svg>
