<svg width="60" height="60" viewBox="0 0 60 60" fill="none" xmlns="http://www.w3.org/2000/svg">
<path d="M53.0835 48.504L53.0834 48.504C51.0033 51.0955 48.5202 53.3056 45.7085 55.0708L45.7084 55.0708C42.8683 56.8556 39.7685 58.1335 36.4968 58.865L36.4967 58.8651C34.3704 59.341 32.1845 59.5834 30.001 59.5834C20.9494 59.5834 12.5133 55.5184 6.85688 48.427C2.64375 43.1381 0.416504 36.7666 0.416504 29.9968C0.416504 13.6866 13.6875 0.416748 30.001 0.416748C46.3144 0.416748 59.5832 13.6866 59.5832 29.9968C59.5832 36.8087 57.3361 43.2087 53.0835 48.504Z" stroke="#1A222C" stroke-width="0.5"/>
<path d="M30.0011 0.333321C46.386 0.333321 59.6689 13.6128 59.6689 29.9967C59.6689 37.0209 57.2314 43.4739 53.1497 48.556C51.0743 51.1425 48.5746 53.3714 45.7527 55.1424C42.953 56.9023 39.84 58.2023 36.5159 58.9489C34.4184 59.4178 32.2409 59.6689 30.0011 59.6689C20.6044 59.6689 12.2298 55.2979 6.79258 48.4826C2.75081 43.4073 0.333296 36.9853 0.333296 29.9967C0.333296 13.6128 13.6163 0.333321 30.0011 0.333321ZM30.0011 0C21.9887 0 14.4539 3.11988 8.78791 8.78412C3.11965 14.4506 0 21.9836 0 29.9967C0 33.4521 0.582158 36.8409 1.73314 40.0696C2.84413 43.1873 4.45728 46.0872 6.53039 48.6871C12.2675 55.8757 20.8199 60 30.0011 60C32.2164 60 34.4317 59.7556 36.587 59.2734C39.9045 58.5312 43.0485 57.2357 45.9282 55.4246C48.7812 53.6336 51.2965 51.3937 53.4074 48.7649C55.5005 46.1605 57.1292 43.2517 58.2513 40.1185C59.4112 36.8786 60 33.4743 60 29.9989C60 21.9859 56.8803 14.4528 51.2121 8.78634C45.5461 3.11988 38.0136 0 30.0011 0Z" fill="#1A222C"/>
<path d="M14.4784 29.9989C14.4784 28.7634 13.4763 27.7634 12.2431 27.7634C11.0099 27.7634 10.0078 28.7656 10.0078 29.9989C10.0078 31.2322 11.0099 32.2344 12.2431 32.2344C13.4763 32.2344 14.4784 31.2322 14.4784 29.9989Z" fill="white"/>
<path d="M30.5101 17.2882C25.844 17.2882 22.8399 20.0237 21.8755 24.4746L15.5474 23.2947C16.6739 16.3749 21.9289 11.4951 30.5657 11.4951C39.2025 11.4951 44.0286 16.0549 44.0286 22.9747C44.0286 29.1967 39.8447 32.6832 33.7853 36.812L25.6329 42.3895H44.4575V48.5049H16.1384V42.2829L29.4392 33.0032C34.4275 29.5167 37.2694 27.2634 37.2694 23.0791C37.2694 19.8615 35.0163 17.286 30.5124 17.286L30.5101 17.2882Z" stroke="#1A222C" stroke-linecap="round" stroke-linejoin="round"/>
</svg>
