<svg width="60" height="60" viewBox="0 0 60 60" fill="none" xmlns="http://www.w3.org/2000/svg">
<path d="M53.0835 48.504L53.0834 48.504C51.0033 51.0955 48.5202 53.3056 45.7085 55.0708L45.7084 55.0708C42.8683 56.8556 39.7685 58.1335 36.4968 58.865L36.4967 58.8651C34.3704 59.341 32.1845 59.5834 30.001 59.5834C20.9494 59.5834 12.5133 55.5184 6.85688 48.427C2.64375 43.1381 0.416504 36.7666 0.416504 29.9968C0.416504 13.6866 13.6875 0.416748 30.001 0.416748C46.3144 0.416748 59.5832 13.6866 59.5832 29.9968C59.5832 36.8087 57.3361 43.2087 53.0835 48.504Z" stroke="#1A222C" stroke-width="0.5"/>
<path d="M30.0011 0.333321C46.386 0.333321 59.6689 13.6128 59.6689 29.9967C59.6689 37.0209 57.2314 43.4739 53.1497 48.556C51.0743 51.1425 48.5746 53.3714 45.7527 55.1424C42.953 56.9023 39.84 58.2023 36.5159 58.9489C34.4184 59.4178 32.2409 59.6689 30.0011 59.6689C20.6044 59.6689 12.2298 55.2979 6.79258 48.4826C2.75081 43.4073 0.333296 36.9853 0.333296 29.9967C0.333296 13.6128 13.6163 0.333321 30.0011 0.333321ZM30.0011 0C21.9887 0 14.4539 3.11988 8.78791 8.78412C3.11965 14.4506 0 21.9836 0 29.9967C0 33.4521 0.582158 36.8409 1.73314 40.0696C2.84413 43.1873 4.45728 46.0872 6.53039 48.6871C12.2675 55.8757 20.8199 60 30.0011 60C32.2164 60 34.4317 59.7556 36.587 59.2734C39.9045 58.5312 43.0485 57.2357 45.9282 55.4246C48.7812 53.6336 51.2965 51.3937 53.4074 48.7649C55.5005 46.1605 57.1292 43.2517 58.2513 40.1185C59.4112 36.8786 60 33.4743 60 29.9989C60 21.9859 56.8803 14.4528 51.2121 8.78634C45.5461 3.11988 38.0136 0 30.0011 0Z" fill="#1A222C"/>
<path d="M14.4784 29.9989C14.4784 28.7634 13.4763 27.7634 12.2431 27.7634C11.0099 27.7634 10.0078 28.7656 10.0078 29.9989C10.0078 31.2322 11.0099 32.2344 12.2431 32.2344C13.4763 32.2344 14.4784 31.2322 14.4784 29.9989Z" fill="white"/>
<path d="M29.9469 49.091C25.4191 49.091 21.7739 48.2246 19.0025 46.4917C16.2399 44.7588 14.4482 42.067 13.6362 38.4162L20.6 37.0872C21.1031 39.1565 22.1534 40.6706 23.7598 41.6464C25.3662 42.6222 27.4844 43.1101 30.1146 43.1101C33.0537 43.1101 35.2955 42.5381 36.8489 41.3941C38.3935 40.25 39.1702 38.7359 39.1702 36.86C39.1702 34.757 38.3317 33.2934 36.6459 32.4606C34.9602 31.6278 32.8066 31.2156 30.1764 31.2156C29.285 31.2156 28.3935 31.2829 27.5021 31.4091C26.6106 31.5353 25.7986 31.6783 25.0661 31.8213L23.089 26.8414L36.9019 16.9994H15.6045V10.9092H44.916V18.0509L32.6124 26.5133H33.3626C37.1579 26.5133 40.2735 27.3545 42.7095 29.0285C45.1455 30.7109 46.3635 33.3186 46.3635 36.8516C46.3635 40.6875 44.8719 43.6821 41.8975 45.844C38.9143 48.0059 34.9337 49.0826 29.9381 49.0826L29.9469 49.091Z" stroke="#1A222C" stroke-width="0.7" stroke-linecap="round" stroke-linejoin="round"/>
</svg>
