<svg width="60" height="60" viewBox="0 0 60 60" fill="none" xmlns="http://www.w3.org/2000/svg">
<path d="M53.0077 48.4414L53.0077 48.4414C50.9346 51.0242 48.4598 53.2269 45.6576 54.9861L45.6574 54.9861C42.827 56.7649 39.7378 58.0384 36.4772 58.7674L36.4771 58.7675C34.358 59.2418 32.1794 59.4834 30.0032 59.4834H30.001C20.9798 59.4834 12.5725 55.4322 6.93496 48.3645C2.73603 43.0934 0.516504 36.7439 0.516504 29.9968C0.516504 13.7418 13.7427 0.516748 30.001 0.516748C46.2592 0.516748 59.4854 13.7418 59.4854 29.9968C59.4854 36.786 57.246 43.1639 53.0077 48.4414Z" stroke="#1A222C" stroke-width="0.7"/>
<path d="M30.0011 0.333321C46.386 0.333321 59.6667 13.6128 59.6667 29.9967C59.6667 37.0209 57.2292 43.4739 53.1474 48.556C51.0721 51.1425 48.5724 53.3714 45.7505 55.1424C42.9508 56.9023 39.8378 58.2023 36.5137 58.9489C34.4162 59.4178 32.2386 59.6689 29.9989 59.6689C20.6022 59.6689 12.2275 55.2979 6.79036 48.4826C2.75081 43.4073 0.333296 36.9853 0.333296 29.9967C0.333296 13.6128 13.6163 0.333321 30.0011 0.333321ZM30.0011 0C21.9887 0 14.4539 3.11988 8.78791 8.78412C3.11965 14.4506 0 21.9836 0 29.9967C0 33.4521 0.582158 36.8409 1.73314 40.0696C2.84413 43.1873 4.45728 46.0872 6.53039 48.6871C12.2675 55.8757 20.8199 60 30.0011 60C32.2164 60 34.4317 59.7556 36.587 59.2734C39.9045 58.5312 43.0485 57.2357 45.9282 55.4246C48.7812 53.6336 51.2965 51.3937 53.4074 48.7649C55.5005 46.1605 57.1292 43.2517 58.2513 40.1185C59.4112 36.8786 60 33.4743 60 29.9989C60 21.9859 56.8803 14.4528 51.2121 8.78634C45.5461 3.11988 38.0136 0 30.0011 0Z" fill="#1A222C"/>
<path d="M11.4652 29.9989C11.4652 28.7634 10.4631 27.7634 9.22994 27.7634C7.99674 27.7634 6.99463 28.7656 6.99463 29.9989C6.99463 31.2322 7.99674 32.2344 9.22994 32.2344C10.4631 32.2344 11.4652 31.2322 11.4652 29.9989Z" fill="white"/>
<path d="M43.1394 42.3361V48.2359H18.8421V42.3361H28.4966V18.4126L19.9153 23.1324L16.8579 17.9304L27.6389 11.7617H34.9337V42.3361H43.1394Z" stroke="#1A222C" stroke-linecap="round" stroke-linejoin="round"/>
</svg>
