<svg width="121" height="122" viewBox="0 0 121 122" fill="none" xmlns="http://www.w3.org/2000/svg">
<path d="M120.5 60.99C120.5 71.94 117.57 82.2 112.44 91.04C111.7 92.3 110.93 93.52 110.12 94.71C110.06 94.82 109.98 94.93 109.92 95.03C108.72 96.76 107.44 98.43 106.06 100.03C105.89 100.23 105.71 100.45 105.53 100.65C104.7 101.59 103.84 102.5 102.97 103.37C102.79 103.55 102.62 103.71 102.45 103.88C101.99 104.33 101.51 104.79 101.02 105.23C96.27 109.59 90.82 113.2 84.85 115.85C78.81 118.54 72.25 120.26 65.35 120.8C63.74 120.94 62.13 121 60.5 121C57.3 121 54.17 120.75 51.11 120.26C47.19 119.65 43.42 118.65 39.79 117.31C34.73 115.45 29.98 112.93 25.66 109.83C25.49 109.72 25.33 109.59 25.16 109.47C24.54 109.01 23.9 108.54 23.29 108.07C22.66 107.55 22.01 107.03 21.39 106.5C20.99 106.16 20.61 105.82 20.21 105.47C19.14 104.5 18.13 103.49 17.13 102.46C15.86 101.13 14.67 99.75 13.54 98.32C13.46 98.23 13.38 98.13 13.3 98.04C11.31 95.5 9.5 92.79 7.94 89.95C5.75 86.01 4.02 81.8 2.77 77.38C2.18 75.33 1.7 73.23 1.34 71.09C0.78 67.8 0.5 64.43 0.5 60.99C0.5 27.86 27.36 1 60.49 1C62.81 1 65.1 1.14 67.34 1.4C87.27 3.67 104.24 15.7 113.34 32.59C116.52 38.5 118.76 45.01 119.8 51.91C119.97 53.01 120.11 54.13 120.21 55.24C120.39 57.14 120.49 59.06 120.49 61L120.5 60.99Z" fill="#E7ECF3" stroke="#8D8E91" stroke-width="0.7" stroke-linecap="round" stroke-linejoin="round"/>
<path d="M40.6097 41.0797C40.6097 38.3997 38.4397 36.2397 35.7697 36.2397C33.0997 36.2397 30.9297 38.4097 30.9297 41.0797C30.9297 43.7497 33.0997 45.9197 35.7697 45.9197C38.4397 45.9197 40.6097 43.7497 40.6097 41.0797Z" fill="#E41910"/>
<path d="M81.5 58.4498V19.3398H30.73L19.25 30.7198V95.3198H51.93" stroke="#8D8E91" stroke-width="0.7" stroke-linecap="round" stroke-linejoin="round"/>
<path d="M44.3398 37.1699H69.2698" stroke="#8D8E91" stroke-width="0.7" stroke-linecap="round" stroke-linejoin="round"/>
<path d="M44.3398 45.1899H69.2698" stroke="#8D8E91" stroke-width="0.7" stroke-linecap="round" stroke-linejoin="round"/>
<path d="M44.3398 56.9399H69.2698" stroke="#8D8E91" stroke-width="0.7" stroke-linecap="round" stroke-linejoin="round"/>
<path d="M44.3398 64.9497H69.2698" stroke="#8D8E91" stroke-width="0.7" stroke-linecap="round" stroke-linejoin="round"/>
<path d="M39.7699 55.6899H31.7599C31.1247 55.6899 30.6099 56.2048 30.6099 56.8399V64.8499C30.6099 65.4851 31.1247 65.9999 31.7599 65.9999H39.7699C40.405 65.9999 40.9199 65.4851 40.9199 64.8499V56.8399C40.9199 56.2048 40.405 55.6899 39.7699 55.6899Z" stroke="#8D8E91" stroke-width="0.7" stroke-linecap="round" stroke-linejoin="round"/>
<path d="M44.3398 76.6997H61.2698" stroke="#8D8E91" stroke-width="0.7" stroke-linecap="round" stroke-linejoin="round"/>
<path d="M44.3398 84.7197H49.7798" stroke="#8D8E91" stroke-width="0.7" stroke-linecap="round" stroke-linejoin="round"/>
<path d="M39.7699 75.4497H31.7599C31.1247 75.4497 30.6099 75.9646 30.6099 76.5997V84.6097C30.6099 85.2448 31.1247 85.7597 31.7599 85.7597H39.7699C40.405 85.7597 40.9199 85.2448 40.9199 84.6097V76.5997C40.9199 75.9646 40.405 75.4497 39.7699 75.4497Z" stroke="#8D8E91" stroke-width="0.7" stroke-linecap="round" stroke-linejoin="round"/>
<path d="M30.73 19.3398V30.7198H19.25" stroke="#8D8E91" stroke-width="0.7" stroke-linecap="round" stroke-linejoin="round"/>
<path d="M95.52 83.5303H82.97V103.07H95.52V83.5303Z" stroke="#8D8E91" stroke-width="0.7" stroke-linecap="round" stroke-linejoin="round"/>
<path d="M82.7599 100.72L80.2399 102.23C78.6999 103.11 76.9699 103.57 75.1999 103.57H60.1699C59.0299 103.57 58.1099 102.65 58.1099 101.51C58.1099 100.84 58.4299 100.22 58.9799 99.8303L59.7099 99.3103L58.8399 99.1403C57.6999 98.9103 56.8799 97.9103 56.8799 96.7503C56.8799 95.7903 57.4499 94.9203 58.3299 94.5303L58.5799 94.4203L57.5299 93.9403C56.6799 93.5503 56.1299 92.6903 56.1299 91.7503C56.1299 90.7503 56.7399 89.8603 57.6799 89.5003L58.5799 89.1503L57.7999 88.7303C56.9999 88.3003 56.5099 87.4603 56.5099 86.5503C56.5099 85.1803 57.6199 84.0703 58.9899 84.0703H71.0099" stroke="#8D8E91" stroke-width="0.7" stroke-linecap="round" stroke-linejoin="round"/>
<path d="M82.9899 84.8701L82.2599 84.4601C79.0099 82.6101 76.7299 79.4301 76.0199 75.7501L75.8799 75.0101C75.6699 73.9201 74.7199 73.1401 73.6099 73.1401C72.6099 73.1401 71.7299 73.7801 71.4199 74.7301C70.9299 76.2301 70.6799 77.8101 70.6799 79.3901V84.2501" stroke="#8D8E91" stroke-width="0.7" stroke-linecap="round" stroke-linejoin="round"/>
<path d="M75.5298 67.7199C84.2598 67.7199 91.3398 60.6399 91.3398 51.9099V48.6999H86.3898L98.9398 36.1499L111.49 48.6999H106.54C106.54 62.1999 95.5898 73.1499 82.0898 73.1499" stroke="#8D8E91" stroke-width="0.7" stroke-linecap="round" stroke-linejoin="round"/>
</svg>
