<svg width="121" height="122" viewBox="0 0 121 122" fill="none" xmlns="http://www.w3.org/2000/svg">
<path d="M60.5 121C93.6371 121 120.5 94.1371 120.5 61C120.5 27.8629 93.6371 1 60.5 1C27.3629 1 0.5 27.8629 0.5 61C0.5 94.1371 27.3629 121 60.5 121Z" fill="#E7ECF3" stroke="#8D8E91" stroke-width="0.7" stroke-linejoin="bevel"/>
<path d="M104.53 67.9764V54.5163L95.7358 53.8288C94.8339 49.4044 93.107 45.2853 90.7339 41.6198L96.5662 34.8004L87.0493 25.2834L80.2546 31.0937C76.6331 28.7262 72.5607 26.9993 68.1886 26.0726L67.4764 16.9736H54.0163L53.3041 26.0726C48.9924 26.9883 44.9723 28.6822 41.3893 31.0002L34.3004 24.9397L24.7834 34.4567L30.8219 41.5208C28.5121 45.0598 26.8155 49.0332 25.8778 53.2926L16.4736 54.0268V67.4869L25.7624 68.2129C26.6395 72.4915 28.2894 76.4842 30.547 80.0561L24.437 87.2028L33.9539 96.7197L40.9603 90.7307C44.513 93.0983 48.514 94.8416 52.8064 95.8178L53.5268 105.03H66.9869L67.6909 96.0323C72.0795 95.1689 76.1739 93.497 79.8256 91.1845L86.7055 97.0662L96.2225 87.5493L90.4617 80.8123C92.887 77.1799 94.6606 73.08 95.6258 68.6721L104.532 67.9764H104.53Z" stroke="#8D8E91" stroke-width="0.7" stroke-linecap="round" stroke-linejoin="round"/>
<path d="M35.2979 62.603L56.7241 49.6846L87.659 58.6158L66.373 71.845L35.2979 62.603Z" stroke="#8D8E91" stroke-width="0.7" stroke-linecap="round" stroke-linejoin="round"/>
<path d="M45.4355 66.0624V70.6765C45.4355 70.6765 49.6152 76.5968 62.1899 76.5968C74.7646 76.5968 77.6436 69.0239 77.6436 69.0239V64.8965" stroke="#8D8E91" stroke-width="0.7" stroke-linecap="round" stroke-linejoin="round"/>
<path d="M66.4839 71.9414V80.3475" stroke="#8D8E91" stroke-width="0.7" stroke-linecap="round" stroke-linejoin="round"/>
<path d="M66.5857 80.3472C68.1778 80.3472 69.4729 81.6396 69.4729 83.2344V86.9494C69.4729 87.2463 69.231 87.4856 68.9367 87.4856H64.2374C63.9404 87.4856 63.7012 87.2436 63.7012 86.9494V83.2344C63.7012 81.6423 64.9936 80.3472 66.5884 80.3472H66.5857Z" stroke="#8D8E91" stroke-width="0.7" stroke-linecap="round" stroke-linejoin="round"/>
<path d="M50.2392 43.2445C50.2392 40.5937 48.0889 38.4434 45.4354 38.4434C42.7819 38.4434 40.6343 40.5937 40.6343 43.2445C40.6343 45.8952 42.7846 48.0456 45.4354 48.0456C48.0862 48.0456 50.2392 45.8952 50.2392 43.2445Z" fill="#E41910"/>
</svg>
