<svg width="62" height="62" viewBox="0 0 62 62" fill="none" xmlns="http://www.w3.org/2000/svg">
<path d="M47.617 17.1672C47.617 15.9172 46.607 14.9072 45.357 14.9072C44.107 14.9072 43.097 15.9172 43.097 17.1672C43.097 18.4172 44.107 19.4272 45.357 19.4272C46.607 19.4272 47.617 18.4172 47.617 17.1672Z" fill="#E41910"/>
<path d="M61 30.995C61 39.0337 57.8395 46.3324 52.6886 51.7215C52.0085 52.4314 51.2984 53.1113 50.5583 53.7512C49.8781 54.3411 49.158 54.901 48.4279 55.4309C44.4872 58.2405 39.8465 60.1301 34.8056 60.76C33.5554 60.92 32.2852 61 30.995 61C24.3539 61 18.2129 58.8404 13.252 55.191C10.5516 53.2113 8.1912 50.7817 6.28088 48.0222C5.11069 46.3324 4.11052 44.5027 3.31039 42.5831C2.08018 39.6336 1.30005 36.4541 1.07001 33.1146C1.02 32.4148 1 31.7149 1 31.015C1 26.0358 2.2102 21.3366 4.36056 17.2073C5.26071 15.4776 6.32089 13.8479 7.52109 12.3381C13.012 5.41926 21.4934 1 30.995 1C47.5678 1 61 14.4278 61 30.995Z" stroke="#8D8E91" stroke-width="0.7" stroke-linecap="round" stroke-linejoin="round"/>
<path d="M17.9123 15.5483C19.3041 15.5483 20.4323 14.4201 20.4323 13.0283C20.4323 11.6365 19.3041 10.5083 17.9123 10.5083C16.5205 10.5083 15.3923 11.6365 15.3923 13.0283C15.3923 14.4201 16.5205 15.5483 17.9123 15.5483Z" stroke="#8D8E91" stroke-width="0.7" stroke-linecap="round" stroke-linejoin="round"/>
<path d="M14.7423 21.7872V19.8472C14.7423 18.0972 16.1625 16.6772 17.9128 16.6772C19.6631 16.6772 21.0834 18.0972 21.0834 19.8472V21.7872" stroke="#8D8E91" stroke-width="0.7" stroke-linecap="round" stroke-linejoin="round"/>
<path d="M18.0927 16.7075L18.8427 21.1775L17.9027 22.0375L16.9827 21.1775L17.7227 16.7075H18.0927Z" stroke="#8D8E91" stroke-width="0.7" stroke-linecap="round" stroke-linejoin="round"/>
<path d="M24.2939 11.5781H41.9868" stroke="#8D8E91" stroke-width="0.7" stroke-linecap="round" stroke-linejoin="round"/>
<path d="M24.2939 14.9072H37.4361" stroke="#8D8E91" stroke-width="0.7" stroke-linecap="round" stroke-linejoin="round"/>
<path d="M17.9123 30.5161C19.3041 30.5161 20.4323 29.3878 20.4323 27.9961C20.4323 26.6043 19.3041 25.4761 17.9123 25.4761C16.5205 25.4761 15.3923 26.6043 15.3923 27.9961C15.3923 29.3878 16.5205 30.5161 17.9123 30.5161Z" stroke="#8D8E91" stroke-width="0.7" stroke-linecap="round" stroke-linejoin="round"/>
<path d="M14.7423 36.755V34.815C14.7423 33.065 16.1625 31.645 17.9128 31.645C19.6631 31.645 21.0834 33.065 21.0834 34.815V36.755" stroke="#8D8E91" stroke-width="0.7" stroke-linecap="round" stroke-linejoin="round"/>
<path d="M18.0927 31.6753L18.8427 36.1453L17.9027 37.0053L16.9827 36.1453L17.7227 31.6753H18.0927Z" stroke="#8D8E91" stroke-width="0.7" stroke-linecap="round" stroke-linejoin="round"/>
<path d="M17.9123 46.2431C19.3041 46.2431 20.4323 45.1149 20.4323 43.7231C20.4323 42.3314 19.3041 41.2031 17.9123 41.2031C16.5205 41.2031 15.3923 42.3314 15.3923 43.7231C15.3923 45.1149 16.5205 46.2431 17.9123 46.2431Z" stroke="#8D8E91" stroke-width="0.7" stroke-linecap="round" stroke-linejoin="round"/>
<path d="M14.7423 52.4723V50.5323C14.7423 48.7823 16.1625 47.3623 17.9128 47.3623C19.6631 47.3623 21.0834 48.7823 21.0834 50.5323V52.4723" stroke="#8D8E91" stroke-width="0.7" stroke-linecap="round" stroke-linejoin="round"/>
<path d="M18.0927 47.3921L18.8427 51.8621L17.9027 52.7221L16.9827 51.8621L17.7227 47.3921H18.0927Z" stroke="#8D8E91" stroke-width="0.7" stroke-linecap="round" stroke-linejoin="round"/>
<path d="M35.9958 34.8346C38.6859 34.8346 40.8667 32.6546 40.8667 29.9654C40.8667 27.2762 38.6859 25.0962 35.9958 25.0962C33.3058 25.0962 31.125 27.2762 31.125 29.9654C31.125 32.6546 33.3058 34.8346 35.9958 34.8346Z" stroke="#8D8E91" stroke-width="0.7" stroke-linecap="round" stroke-linejoin="round"/>
<path d="M33.8046 36.7344C33.3446 36.8744 32.8946 37.0543 32.4746 37.2743C30.0746 38.5441 28.4446 41.0637 28.4446 43.9632" stroke="#8D8E91" stroke-width="0.7" stroke-linecap="round" stroke-linejoin="round"/>
<path d="M43.5562 43.9631C43.5562 41.8735 42.7062 39.9838 41.3462 38.614C40.8062 38.0741 40.1862 37.6142 39.4962 37.2543C39.0862 37.0343 38.6362 36.8543 38.1762 36.7144" stroke="#8D8E91" stroke-width="0.7" stroke-linecap="round" stroke-linejoin="round"/>
<path d="M31.7351 37.7236L35.9258 43.9026L40.2166 37.7036" stroke="#8D8E91" stroke-width="0.7" stroke-linecap="round" stroke-linejoin="round"/>
<path d="M33.9555 36.864L35.9655 39.834L38.0155 36.854" stroke="#8D8E91" stroke-width="0.7" stroke-linecap="round" stroke-linejoin="round"/>
<path d="M36.1759 50.7516C44.5168 50.7516 51.2784 43.9922 51.2784 35.6541C51.2784 27.316 44.5168 20.5566 36.1759 20.5566C27.835 20.5566 21.0734 27.316 21.0734 35.6541C21.0734 43.9922 27.835 50.7516 36.1759 50.7516Z" stroke="#8D8E91" stroke-width="0.7" stroke-linecap="round" stroke-linejoin="round"/>
<path d="M36.1759 48.2919C43.1579 48.2919 48.818 42.6337 48.818 35.654C48.818 28.6743 43.1579 23.0161 36.1759 23.0161C29.1938 23.0161 23.5338 28.6743 23.5338 35.654C23.5338 42.6337 29.1938 48.2919 36.1759 48.2919Z" stroke="#8D8E91" stroke-width="0.7" stroke-linecap="round" stroke-linejoin="round"/>
<path d="M44.9673 48.332L46.0573 49.532" stroke="#8D8E91" stroke-width="0.7" stroke-linecap="round" stroke-linejoin="round"/>
<path d="M47.9579 45.6226L49.0479 46.8226" stroke="#8D8E91" stroke-width="0.7" stroke-linecap="round" stroke-linejoin="round"/>
<path d="M47.8278 52.8918L45.3574 50.1722L49.7481 46.1929L52.2485 48.9424" stroke="#8D8E91" stroke-width="0.7" stroke-linecap="round" stroke-linejoin="round"/>
</svg>
