<svg width="62" height="62" viewBox="0 0 62 62" fill="none" xmlns="http://www.w3.org/2000/svg">
<path d="M31 61C47.5685 61 61 47.5685 61 31C61 14.4315 47.5685 1 31 1C14.4315 1 1 14.4315 1 31C1 47.5685 14.4315 61 31 61Z" fill="white" stroke="#818488" stroke-width="0.7" stroke-linecap="round" stroke-linejoin="round"/>
<path d="M7.85229 36.6519H15.3048V50.8466H13.2841" stroke="#878A8E" stroke-width="0.7" stroke-linejoin="bevel"/>
<path d="M15.3048 37.4018L18.966 36.3715C21.1467 35.7612 23.4875 36.1314 25.3681 37.3818L30.4798 40.7729C31.07 41.163 31.7702 41.3731 32.4805 41.3731H38.6725C39.7729 41.3731 40.6632 42.2634 40.6632 43.3638C40.6632 44.4641 39.7729 45.3544 38.6725 45.3544H32.9506C32.1004 45.3544 31.2401 45.2644 30.4098 45.0744L25.3281 43.934" stroke="#878A8E" stroke-width="0.7" stroke-linejoin="bevel"/>
<path d="M15.3048 49.8058L24.5178 51.4464C28.2591 52.1166 32.0803 52.1366 35.8316 51.5164C40.7132 50.7061 45.2547 48.4654 48.8659 45.0843C49.9563 44.0639 49.9263 42.3233 48.8159 41.333C48.0657 40.6728 47.0053 40.5127 46.095 40.9229L40.6832 43.3737" stroke="#878A8E" stroke-width="0.7" stroke-linejoin="bevel"/>
<path d="M48.1557 36.0912C48.1557 34.7508 47.0753 33.6704 45.7349 33.6704C44.3944 33.6704 43.3141 34.7508 43.3141 36.0912C43.3141 37.4317 44.3944 38.512 45.7349 38.512C47.0753 38.512 48.1557 37.4317 48.1557 36.0912Z" fill="#E41910"/>
<path d="M32.4905 23.3772C34.6783 23.3772 36.4518 21.6037 36.4518 19.4159C36.4518 17.2281 34.6783 15.4546 32.4905 15.4546C30.3027 15.4546 28.5292 17.2281 28.5292 19.4159C28.5292 21.6037 30.3027 23.3772 32.4905 23.3772Z" stroke="#8D8E91" stroke-width="0.7" stroke-linecap="round" stroke-linejoin="round"/>
<path d="M34.2611 24.9175C34.6412 25.0275 35.0013 25.1776 35.3414 25.3576C37.2921 26.388 38.6225 28.4387 38.6225 30.7994V36.8314C38.6225 37.6617 37.9523 38.342 37.112 38.342C36.2817 38.342 35.6015 37.6717 35.6015 36.8314V34.9808" stroke="#8D8E91" stroke-width="0.7" stroke-linecap="round" stroke-linejoin="round"/>
<path d="M29.6795 33.3503L31.9803 35.3009C32.6305 35.8511 32.7006 36.8114 32.1504 37.4617C31.6102 38.0919 30.6599 38.1719 30.0197 37.6517L27.0487 35.2209C26.5985 34.8508 26.3384 34.3006 26.3384 33.7104V30.8094C26.3384 29.1089 27.0287 27.5684 28.139 26.458C28.5792 26.0178 29.0793 25.6477 29.6495 25.3576C29.9896 25.1776 30.3498 25.0375 30.7199 24.9175" stroke="#8D8E91" stroke-width="0.7" stroke-linecap="round" stroke-linejoin="round"/>
<path d="M34.2611 24.9175L32.5105 27.7084L30.7199 24.9175" stroke="#8D8E91" stroke-width="0.7" stroke-linecap="round" stroke-linejoin="round"/>
<path d="M36.0117 25.7781L32.5505 30.8798L28.9993 25.748" stroke="#8D8E91" stroke-width="0.7" stroke-linecap="round" stroke-linejoin="round"/>
<path d="M36.4518 29.5288L32.0803 34.9806" stroke="#8D8E91" stroke-width="0.7" stroke-linecap="round" stroke-linejoin="round"/>
<path d="M55.9783 22.377L32.2204 5.36133L9.02266 22.287L14.4345 22.477L32.2804 9.44269L50.5765 22.5371L55.9783 22.377Z" stroke="#8D8E91" stroke-width="0.7" stroke-linecap="round" stroke-linejoin="round"/>
<path d="M9.02266 25.748H24.6279" stroke="#8D8E91" stroke-width="0.7" stroke-linecap="round" stroke-linejoin="round"/>
<path d="M39.7029 25.748H55.9783" stroke="#8D8E91" stroke-width="0.7" stroke-linecap="round" stroke-linejoin="round"/>
<path d="M11.5835 27.6787V33.7307" stroke="#8D8E91" stroke-width="0.7" stroke-linecap="round" stroke-linejoin="round"/>
<path d="M19.4461 27.6787V33.5507" stroke="#8D8E91" stroke-width="0.7" stroke-linecap="round" stroke-linejoin="round"/>
<path d="M45.7349 27.6787V31.63" stroke="#8D8E91" stroke-width="0.7" stroke-linecap="round" stroke-linejoin="round"/>
<path d="M53.5975 27.6787V42.6637" stroke="#8D8E91" stroke-width="0.7" stroke-linecap="round" stroke-linejoin="round"/>
</svg>
