<svg width="62" height="62" viewBox="0 0 62 62" fill="none" xmlns="http://www.w3.org/2000/svg">
<path d="M31 61C47.5685 61 61 47.5685 61 31C61 14.4315 47.5685 1 31 1C14.4315 1 1 14.4315 1 31C1 47.5685 14.4315 61 31 61Z" fill="white" stroke="#818488" stroke-width="0.7" stroke-linecap="round" stroke-linejoin="round"/>
<path d="M52.2371 42.2738C52.2371 40.9334 51.1567 39.853 49.8163 39.853C48.4758 39.853 47.3955 40.9334 47.3955 42.2738C47.3955 43.6143 48.4758 44.6946 49.8163 44.6946C51.1567 44.6946 52.2371 43.6143 52.2371 42.2738Z" fill="#E41910"/>
<path d="M21.4568 24.3979C25.4622 24.3979 28.7092 21.1509 28.7092 17.1455C28.7092 13.1401 25.4622 9.89307 21.4568 9.89307C17.4514 9.89307 14.2044 13.1401 14.2044 17.1455C14.2044 21.1509 17.4514 24.3979 21.4568 24.3979Z" stroke="#8D8E91" stroke-width="0.7" stroke-linecap="round" stroke-linejoin="round"/>
<path d="M24.7179 27.2388C25.4081 27.4488 26.0783 27.7089 26.7086 28.049C30.2797 29.9397 32.7206 33.6909 32.7206 38.0224V40.9934" stroke="#8D8E91" stroke-width="0.7" stroke-linecap="round" stroke-linejoin="round"/>
<path d="M16.3051 42.6839L20.5265 46.2551C21.7069 47.2554 21.8569 49.036 20.8466 50.2164C19.8563 51.3768 18.1257 51.5269 16.9453 50.5665L11.5035 46.1151C10.6732 45.4348 10.1931 44.4245 10.1931 43.3541V38.0324C10.1931 34.9213 11.4535 32.1004 13.4842 30.0597C14.2944 29.2594 15.2147 28.5692 16.2451 28.039C16.8653 27.7089 17.5255 27.4488 18.2057 27.2388" stroke="#8D8E91" stroke-width="0.7" stroke-linecap="round" stroke-linejoin="round"/>
<path d="M24.7179 27.239L21.4968 32.3507L18.2157 27.229" stroke="#8D8E91" stroke-width="0.7" stroke-linecap="round" stroke-linejoin="round"/>
<path d="M27.919 28.7995L21.5669 38.1626L15.0647 28.7495" stroke="#8D8E91" stroke-width="0.7" stroke-linecap="round" stroke-linejoin="round"/>
<path d="M28.7292 35.6816L20.7066 45.685" stroke="#8D8E91" stroke-width="0.7" stroke-linecap="round" stroke-linejoin="round"/>
<path d="M27.8189 47.2655L37.112 35.6817L42.5839 40.0031L52.6672 28.1191" stroke="#8D8E91" stroke-width="0.7" stroke-linecap="round" stroke-linejoin="round"/>
<path d="M47.8256 30.2894L52.8373 27.7886L51.3968 33.0903" stroke="#8D8E91" stroke-width="0.7" stroke-linecap="round" stroke-linejoin="round"/>
<path d="M23.7876 47.2656H50.3364" stroke="#8D8E91" stroke-width="0.7" stroke-linecap="round" stroke-linejoin="round"/>
<path d="M38.2424 22.877V29.7893" stroke="#8D8E91" stroke-width="0.7" stroke-linecap="round" stroke-linejoin="round"/>
<path d="M34.7913 26.3281H41.6936" stroke="#8D8E91" stroke-width="0.7" stroke-linecap="round" stroke-linejoin="round"/>
<path d="M45.1047 14.0645V23.7977" stroke="#8D8E91" stroke-width="0.7" stroke-linecap="round" stroke-linejoin="round"/>
<path d="M40.2431 18.936H49.9763" stroke="#8D8E91" stroke-width="0.7" stroke-linecap="round" stroke-linejoin="round"/>
</svg>
