<svg width="101" height="100" viewBox="0 0 101 100" fill="none" xmlns="http://www.w3.org/2000/svg">
<g clip-path="url(#clip0_858_20447)">
<path fill-rule="evenodd" clip-rule="evenodd" d="M76.0967 21.351C76.2912 21.4283 76.3862 21.6485 76.309 21.8431C70.7023 35.9626 61.7401 47.0212 53.1061 54.8301C44.483 62.6292 36.1518 67.2177 31.7789 68.3588C31.5765 68.4117 31.3695 68.2904 31.3167 68.0879C31.2639 67.8854 31.3852 67.6784 31.5877 67.6257C35.795 66.5277 44.0197 62.0264 52.5978 54.2681C61.1651 46.5195 70.0496 35.5532 75.6048 21.5634C75.6819 21.3689 75.9023 21.2739 76.0967 21.351Z" fill="#D0D4D9"/>
<path fill-rule="evenodd" clip-rule="evenodd" d="M50.4908 99.2389C77.6766 99.2389 99.7148 77.2009 99.7148 50.0151C99.7148 22.8294 77.6766 0.790961 50.4908 0.790961C23.305 0.790961 1.26658 22.8294 1.26658 50.0151C1.26658 77.2009 23.305 99.2389 50.4908 99.2389ZM50.4908 99.9969C78.095 99.9969 100.473 77.6194 100.473 50.0151C100.473 22.4109 78.095 0.0332031 50.4908 0.0332031C22.8865 0.0332031 0.50882 22.4109 0.50882 50.0151C0.50882 77.6194 22.8865 99.9969 50.4908 99.9969Z" fill="#D0D4D9"/>
<path fill-rule="evenodd" clip-rule="evenodd" d="M61.0876 37.3728V33.9778C61.0876 29.8883 57.7723 26.5732 53.6829 26.5732C49.5934 26.5732 46.2782 29.8883 46.2782 33.9778V37.3728C46.2782 41.4623 49.5934 44.7774 53.6829 44.7774C57.7723 44.7774 61.0876 41.4623 61.0876 37.3728ZM53.6829 25.8154C49.1749 25.8154 45.5204 29.4699 45.5204 33.9778V37.3728C45.5204 41.8807 49.1749 45.5352 53.6829 45.5352C58.1909 45.5352 61.8453 41.8807 61.8453 37.3728V33.9778C61.8453 29.4699 58.1909 25.8154 53.6829 25.8154Z" fill="#D0D4D9"/>
<path fill-rule="evenodd" clip-rule="evenodd" d="M38.9118 56.4786V53.9504C38.9118 50.958 36.486 48.5321 33.4936 48.5321C30.5012 48.5321 28.0753 50.958 28.0753 53.9504V56.4786C28.0753 59.471 30.5012 61.8968 33.4936 61.8968C36.486 61.8968 38.9118 59.471 38.9118 56.4786ZM33.4936 47.7744C30.0827 47.7744 27.3176 50.5395 27.3176 53.9504V56.4786C27.3176 59.8895 30.0827 62.6546 33.4936 62.6546C36.9045 62.6546 39.6696 59.8895 39.6696 56.4786V53.9504C39.6696 50.5395 36.9045 47.7744 33.4936 47.7744Z" fill="#D0D4D9"/>
<path d="M65.3592 52.4477C65.3592 53.5895 64.4336 54.5152 63.2918 54.5152C62.15 54.5152 61.2245 53.5895 61.2245 52.4477C61.2245 51.306 62.15 50.3804 63.2918 50.3804C64.4336 50.3804 65.3592 51.306 65.3592 52.4477Z" fill="#EE1C25"/>
<path fill-rule="evenodd" clip-rule="evenodd" d="M30.7156 69.65L29.1915 68.1259C28.935 67.8695 28.5192 67.8695 28.2627 68.1259L25.766 70.6226C25.5095 70.8791 25.5095 71.2949 25.766 71.5514L27.2901 73.0755C27.5466 73.332 27.9624 73.332 28.2189 73.0755L30.7156 70.5788C30.972 70.3222 30.972 69.9065 30.7156 69.65ZM29.7272 67.5901C29.1748 67.0377 28.2792 67.0377 27.7268 67.5901L25.2301 70.0868C24.6778 70.6391 24.6778 71.5348 25.2301 72.0872L26.7542 73.6113C27.3066 74.1636 28.2023 74.1636 28.7546 73.6113L31.2513 71.1146C31.8037 70.5622 31.8037 69.6666 31.2513 69.1142L29.7272 67.5901Z" fill="#D0D4D9"/>
<path fill-rule="evenodd" clip-rule="evenodd" d="M79.2549 12.9107C79.4096 12.9534 79.5206 13.089 79.532 13.2492L80.1788 22.3974C80.1874 22.5182 80.1376 22.6358 80.0449 22.7138C79.9523 22.7918 79.8279 22.8209 79.7103 22.7919L73.7039 21.3134C73.5826 21.2836 73.4838 21.1958 73.4399 21.0789C73.3958 20.962 73.4124 20.8309 73.4839 20.7286L78.8435 13.0588C78.9354 12.9273 79.1003 12.8679 79.2549 12.9107ZM74.4215 20.7097L79.3862 21.9318L78.8516 14.3702L74.4215 20.7097Z" fill="#D0D4D9"/>
<path fill-rule="evenodd" clip-rule="evenodd" d="M78.033 21.5562C78.2401 21.5861 78.3837 21.7783 78.3538 21.9853C76.9187 31.905 74.3633 47.4157 71.3601 61.713C69.8585 68.8614 68.2439 75.7115 66.6003 81.4098C64.9605 87.0951 63.2806 91.6751 61.6367 94.2532C61.635 94.2558 61.6333 94.2585 61.6315 94.2612C61.4661 94.5066 61.1971 94.6817 60.9079 94.8093C60.6121 94.9398 60.2559 95.0377 59.868 95.1069C59.0916 95.2456 58.1434 95.277 57.196 95.1944C56.2492 95.1119 55.2819 94.9137 54.4721 94.5799C53.6729 94.2505 52.9675 93.7637 52.6388 93.0654C52.5725 92.9261 52.5378 92.7344 52.5145 92.5444C52.4893 92.34 52.4722 92.0861 52.461 91.7928C52.4388 91.2055 52.44 90.4351 52.4564 89.5347C52.4862 87.9016 52.5667 85.82 52.653 83.5868C52.6619 83.3565 52.6709 83.1246 52.6798 82.8914C52.8725 77.8866 53.0701 72.3059 52.8015 69.2403C52.5905 66.8334 51.8078 65.4385 50.9666 64.6587C50.1201 63.8743 49.1847 63.6832 48.6123 63.7307C48.5971 63.732 48.5818 63.7324 48.5667 63.7318C47.9595 63.7089 46.9616 63.9372 46.0406 64.7417C45.127 65.5399 44.2661 66.9262 43.9651 69.2557C43.5748 72.2769 42.5074 78.096 41.4436 83.3538C40.9115 85.9845 40.3792 88.4792 39.9318 90.4185C39.7082 91.3878 39.5052 92.2207 39.3335 92.8635C39.1657 93.4922 39.0194 93.9725 38.906 94.2114C38.8489 94.3324 38.758 94.4264 38.6716 94.4973C38.582 94.5708 38.476 94.6368 38.3625 94.6962C38.1355 94.8152 37.8462 94.9248 37.5194 95.0216C36.8636 95.2159 36.0134 95.3715 35.1077 95.4402C34.2019 95.509 33.2263 95.4921 32.3221 95.3332C31.4223 95.1751 30.5629 94.8712 29.9194 94.3422C29.9147 94.3383 29.91 94.3343 29.9056 94.3304C29.8197 94.2526 29.7537 94.147 29.7027 94.0533C29.6475 93.9514 29.5915 93.8272 29.5344 93.6852C29.4202 93.4004 29.2929 93.0196 29.1555 92.551C28.8802 91.6122 28.5573 90.2963 28.2121 88.6391C27.5215 85.3233 26.7385 80.624 26.0696 74.8088C26.0457 74.6009 26.1949 74.413 26.4027 74.389C26.6106 74.3651 26.7986 74.5143 26.8225 74.7222C27.489 80.5181 28.2686 85.1944 28.9539 88.4846C29.2967 90.1303 29.615 91.425 29.8826 92.3377C30.0166 92.7948 30.1362 93.1499 30.2377 93.403C30.2885 93.5299 30.3326 93.625 30.3689 93.6921C30.3954 93.7409 30.4119 93.7634 30.4166 93.7699C30.92 94.1769 31.6307 94.4423 32.4532 94.5868C33.2801 94.7321 34.1901 94.7499 35.0504 94.6847C35.9106 94.6194 36.707 94.472 37.3041 94.2951C37.6037 94.2063 37.8425 94.1133 38.0108 94.0251C38.0949 93.981 38.1535 93.9423 38.1909 93.9115C38.2115 93.8946 38.2212 93.8838 38.2246 93.8799C38.303 93.711 38.4317 93.3035 38.6015 92.6681C38.7699 92.0371 38.9708 91.2135 39.1935 90.2481C39.6388 88.3178 40.1695 85.8303 40.701 83.2035C41.7645 77.9465 42.827 72.1506 43.2136 69.1586C43.5341 66.6778 44.4666 65.1106 45.5422 64.1711C46.6003 63.2467 47.775 62.9501 48.5724 62.9738C49.3513 62.916 50.4853 63.1796 51.4816 64.1029C52.4928 65.0402 53.3332 66.6285 53.5563 69.1742C53.8301 72.2993 53.6288 77.9389 53.437 82.9205C53.4281 83.1534 53.4192 83.3848 53.4102 83.6145C53.3238 85.8502 53.2436 87.9237 53.214 89.5486C53.1977 90.4449 53.1968 91.1984 53.2183 91.7642C53.229 92.0475 53.2451 92.2776 53.2666 92.452C53.2773 92.5392 53.2887 92.608 53.3004 92.6601C53.3061 92.6858 53.3114 92.7055 53.316 92.7199C53.3205 92.7345 53.3233 92.7404 53.323 92.7399L53.3241 92.7421C53.5343 93.1892 54.0317 93.5788 54.7609 93.8793C55.4801 94.1758 56.3674 94.3615 57.2618 94.4395C58.1556 94.5174 59.0356 94.4858 59.7349 94.361C60.0849 94.2985 60.3785 94.2146 60.6021 94.116C60.8291 94.0159 60.9489 93.9159 61.0009 93.8409C62.5787 91.364 64.2331 86.8827 65.8722 81.1999C67.5087 75.5266 69.1189 68.6965 70.6185 61.5573C73.6176 47.2794 76.1704 31.7851 77.6038 21.8769C77.6337 21.6698 77.8259 21.5263 78.033 21.5562Z" fill="#D0D4D9"/>
</g>
<defs>
<clipPath id="clip0_858_20447">
<rect width="100.097" height="100" fill="white" transform="translate(0.451416)"/>
</clipPath>
</defs>
</svg>
